<svg width="25" height="25" viewBox="0 0 25 25" fill="none" xmlns="http://www.w3.org/2000/svg">
<path d="M21.5 12.2501H3.5C2.54 12.2501 1.75 11.4601 1.75 10.5001V7.18013C1.75 6.50013 2.21998 5.81013 2.84998 5.56013L11.85 1.96016C12.23 1.81016 12.77 1.81016 13.15 1.96016L22.15 5.56013C22.78 5.81013 23.25 6.51013 23.25 7.18013V10.5001C23.25 11.4601 22.46 12.2501 21.5 12.2501ZM12.5 3.34016C12.46 3.34016 12.42 3.34011 12.4 3.35011L3.40997 6.95015C3.34997 6.98015 3.25 7.11013 3.25 7.18013V10.5001C3.25 10.6401 3.36 10.7501 3.5 10.7501H21.5C21.64 10.7501 21.75 10.6401 21.75 10.5001V7.18013C21.75 7.11013 21.66 6.98015 21.59 6.95015L12.59 3.35011C12.57 3.34011 12.54 3.34016 12.5 3.34016Z" fill="white"/>
<path d="M22.5 23.25H2.5C2.09 23.25 1.75 22.91 1.75 22.5V19.5C1.75 18.54 2.54 17.75 3.5 17.75H21.5C22.46 17.75 23.25 18.54 23.25 19.5V22.5C23.25 22.91 22.91 23.25 22.5 23.25ZM3.25 21.75H21.75V19.5C21.75 19.36 21.64 19.25 21.5 19.25H3.5C3.36 19.25 3.25 19.36 3.25 19.5V21.75Z" fill="white"/>
<path d="M4.5 19.25C4.09 19.25 3.75 18.91 3.75 18.5V11.5C3.75 11.09 4.09 10.75 4.5 10.75C4.91 10.75 5.25 11.09 5.25 11.5V18.5C5.25 18.91 4.91 19.25 4.5 19.25Z" fill="white"/>
<path d="M8.5 19.25C8.09 19.25 7.75 18.91 7.75 18.5V11.5C7.75 11.09 8.09 10.75 8.5 10.75C8.91 10.75 9.25 11.09 9.25 11.5V18.5C9.25 18.91 8.91 19.25 8.5 19.25Z" fill="white"/>
<path d="M12.5 19.25C12.09 19.25 11.75 18.91 11.75 18.5V11.5C11.75 11.09 12.09 10.75 12.5 10.75C12.91 10.75 13.25 11.09 13.25 11.5V18.5C13.25 18.91 12.91 19.25 12.5 19.25Z" fill="white"/>
<path d="M16.5 19.25C16.09 19.25 15.75 18.91 15.75 18.5V11.5C15.75 11.09 16.09 10.75 16.5 10.75C16.91 10.75 17.25 11.09 17.25 11.5V18.5C17.25 18.91 16.91 19.25 16.5 19.25Z" fill="white"/>
<path d="M20.5 19.25C20.09 19.25 19.75 18.91 19.75 18.5V11.5C19.75 11.09 20.09 10.75 20.5 10.75C20.91 10.75 21.25 11.09 21.25 11.5V18.5C21.25 18.91 20.91 19.25 20.5 19.25Z" fill="white"/>
<path d="M23.5 23.25H1.5C1.09 23.25 0.75 22.91 0.75 22.5C0.75 22.09 1.09 21.75 1.5 21.75H23.5C23.91 21.75 24.25 22.09 24.25 22.5C24.25 22.91 23.91 23.25 23.5 23.25Z" fill="white"/>
<path d="M12.5 9.75C11.26 9.75 10.25 8.74 10.25 7.5C10.25 6.26 11.26 5.25 12.5 5.25C13.74 5.25 14.75 6.26 14.75 7.5C14.75 8.74 13.74 9.75 12.5 9.75ZM12.5 6.75C12.09 6.75 11.75 7.09 11.75 7.5C11.75 7.91 12.09 8.25 12.5 8.25C12.91 8.25 13.25 7.91 13.25 7.5C13.25 7.09 12.91 6.75 12.5 6.75Z" fill="white"/>
</svg>
