<svg width="296" height="286" viewBox="0 0 296 286" fill="none" xmlns="http://www.w3.org/2000/svg">
<g filter="url(#filter0_d_54_1890)">
<rect width="265.1" height="254.972" transform="translate(15 15)" fill="white"/>
<rect x="25" y="201" width="246" height="53" rx="10" fill="#4C4898"/>
<path d="M116.152 227.788C116.749 227.895 117.256 228.209 117.672 228.732C118.088 229.255 118.296 229.847 118.296 230.508C118.296 231.073 118.147 231.585 117.848 232.044C117.56 232.492 117.139 232.849 116.584 233.116C116.029 233.372 115.384 233.5 114.648 233.5H110.2V222.38H114.44C115.197 222.38 115.848 222.508 116.392 222.764C116.936 223.02 117.347 223.367 117.624 223.804C117.901 224.231 118.04 224.711 118.04 225.244C118.04 225.884 117.869 226.417 117.528 226.844C117.187 227.271 116.728 227.585 116.152 227.788ZM112.024 227.052H114.28C114.877 227.052 115.341 226.919 115.672 226.652C116.013 226.375 116.184 225.98 116.184 225.468C116.184 224.967 116.013 224.577 115.672 224.3C115.341 224.012 114.877 223.868 114.28 223.868H112.024V227.052ZM114.488 232.012C115.107 232.012 115.592 231.863 115.944 231.564C116.296 231.265 116.472 230.849 116.472 230.316C116.472 229.772 116.285 229.34 115.912 229.02C115.539 228.7 115.043 228.54 114.424 228.54H112.024V232.012H114.488ZM124.102 233.644C123.27 233.644 122.518 233.457 121.846 233.084C121.174 232.7 120.646 232.167 120.262 231.484C119.878 230.791 119.686 229.991 119.686 229.084C119.686 228.188 119.883 227.393 120.278 226.7C120.673 226.007 121.211 225.473 121.894 225.1C122.577 224.727 123.339 224.54 124.182 224.54C125.025 224.54 125.787 224.727 126.47 225.1C127.153 225.473 127.691 226.007 128.086 226.7C128.481 227.393 128.678 228.188 128.678 229.084C128.678 229.98 128.475 230.775 128.07 231.468C127.665 232.161 127.11 232.7 126.406 233.084C125.713 233.457 124.945 233.644 124.102 233.644ZM124.102 232.06C124.571 232.06 125.009 231.948 125.414 231.724C125.83 231.5 126.166 231.164 126.422 230.716C126.678 230.268 126.806 229.724 126.806 229.084C126.806 228.444 126.683 227.905 126.438 227.468C126.193 227.02 125.867 226.684 125.462 226.46C125.057 226.236 124.619 226.124 124.15 226.124C123.681 226.124 123.243 226.236 122.838 226.46C122.443 226.684 122.129 227.02 121.894 227.468C121.659 227.905 121.542 228.444 121.542 229.084C121.542 230.033 121.782 230.769 122.262 231.292C122.753 231.804 123.366 232.06 124.102 232.06ZM134.305 233.644C133.473 233.644 132.721 233.457 132.049 233.084C131.377 232.7 130.849 232.167 130.465 231.484C130.081 230.791 129.889 229.991 129.889 229.084C129.889 228.188 130.087 227.393 130.481 226.7C130.876 226.007 131.415 225.473 132.097 225.1C132.78 224.727 133.543 224.54 134.385 224.54C135.228 224.54 135.991 224.727 136.673 225.1C137.356 225.473 137.895 226.007 138.289 226.7C138.684 227.393 138.881 228.188 138.881 229.084C138.881 229.98 138.679 230.775 138.273 231.468C137.868 232.161 137.313 232.7 136.609 233.084C135.916 233.457 135.148 233.644 134.305 233.644ZM134.305 232.06C134.775 232.06 135.212 231.948 135.617 231.724C136.033 231.5 136.369 231.164 136.625 230.716C136.881 230.268 137.009 229.724 137.009 229.084C137.009 228.444 136.887 227.905 136.641 227.468C136.396 227.02 136.071 226.684 135.665 226.46C135.26 226.236 134.823 226.124 134.353 226.124C133.884 226.124 133.447 226.236 133.041 226.46C132.647 226.684 132.332 227.02 132.097 227.468C131.863 227.905 131.745 228.444 131.745 229.084C131.745 230.033 131.985 230.769 132.465 231.292C132.956 231.804 133.569 232.06 134.305 232.06ZM144.172 229.1L148.236 233.5H145.772L142.508 229.708V233.5H140.684V221.66H142.508V228.54L145.708 224.684H148.236L144.172 229.1ZM158.148 224.54C158.841 224.54 159.46 224.684 160.004 224.972C160.559 225.26 160.991 225.687 161.3 226.252C161.609 226.817 161.764 227.5 161.764 228.3V233.5H159.956V228.572C159.956 227.783 159.759 227.18 159.364 226.764C158.969 226.337 158.431 226.124 157.748 226.124C157.065 226.124 156.521 226.337 156.116 226.764C155.721 227.18 155.524 227.783 155.524 228.572V233.5H153.7V224.684H155.524V225.692C155.823 225.329 156.201 225.047 156.66 224.844C157.129 224.641 157.625 224.54 158.148 224.54ZM167.915 233.644C167.083 233.644 166.331 233.457 165.659 233.084C164.987 232.7 164.459 232.167 164.075 231.484C163.691 230.791 163.499 229.991 163.499 229.084C163.499 228.188 163.696 227.393 164.091 226.7C164.485 226.007 165.024 225.473 165.707 225.1C166.389 224.727 167.152 224.54 167.995 224.54C168.837 224.54 169.6 224.727 170.283 225.1C170.965 225.473 171.504 226.007 171.899 226.7C172.293 227.393 172.491 228.188 172.491 229.084C172.491 229.98 172.288 230.775 171.883 231.468C171.477 232.161 170.923 232.7 170.219 233.084C169.525 233.457 168.757 233.644 167.915 233.644ZM167.915 232.06C168.384 232.06 168.821 231.948 169.227 231.724C169.643 231.5 169.979 231.164 170.235 230.716C170.491 230.268 170.619 229.724 170.619 229.084C170.619 228.444 170.496 227.905 170.251 227.468C170.005 227.02 169.68 226.684 169.275 226.46C168.869 226.236 168.432 226.124 167.963 226.124C167.493 226.124 167.056 226.236 166.651 226.46C166.256 226.684 165.941 227.02 165.707 227.468C165.472 227.905 165.355 228.444 165.355 229.084C165.355 230.033 165.595 230.769 166.075 231.292C166.565 231.804 167.179 232.06 167.915 232.06ZM186.134 224.684L183.398 233.5H181.478L179.702 226.988L177.926 233.5H176.006L173.254 224.684H175.11L176.95 231.772L178.822 224.684H180.726L182.518 231.74L184.342 224.684H186.134Z" fill="white"/>
</g>
<defs>
<filter id="filter0_d_54_1890" x="0" y="0.7" width="295.102" height="284.972" filterUnits="userSpaceOnUse" color-interpolation-filters="sRGB">
<feFlood flood-opacity="0" result="BackgroundImageFix"/>
<feColorMatrix in="SourceAlpha" type="matrix" values="0 0 0 0 0 0 0 0 0 0 0 0 0 0 0 0 0 0 127 0" result="hardAlpha"/>
<feOffset dy="0.7"/>
<feGaussianBlur stdDeviation="7.5"/>
<feComposite in2="hardAlpha" operator="out"/>
<feColorMatrix type="matrix" values="0 0 0 0 0 0 0 0 0 0 0 0 0 0 0 0 0 0 0.25 0"/>
<feBlend mode="normal" in2="BackgroundImageFix" result="effect1_dropShadow_54_1890"/>
<feBlend mode="normal" in="SourceGraphic" in2="effect1_dropShadow_54_1890" result="shape"/>
</filter>
</defs>
</svg>
