<svg width="40" height="40" viewBox="0 0 40 40" fill="none" xmlns="http://www.w3.org/2000/svg">
<g clip-path="url(#clip0_69_1981)">
<path d="M4.44444 5.55554C3.2657 5.55554 2.13524 6.02379 1.30175 6.85729C0.468253 7.69078 0 8.82125 0 9.99999L0 30C0 31.1787 0.468253 32.3092 1.30175 33.1427C2.13524 33.9762 3.2657 34.4444 4.44444 34.4444H13.3333V5.55554H4.44444Z" fill="#009A49"/>
<path d="M13.333 5.55554H26.6663V34.4444H13.333V5.55554Z" fill="#EEEEEE"/>
<path d="M35.5559 5.55554H26.667V34.4444H35.5559C36.7346 34.4444 37.8651 33.9762 38.6986 33.1427C39.5321 32.3092 40.0003 31.1787 40.0003 30V9.99999C40.0003 8.82125 39.5321 7.69078 38.6986 6.85729C37.8651 6.02379 36.7346 5.55554 35.5559 5.55554Z" fill="#009A49"/>
</g>
<defs>
<clipPath id="clip0_69_1981">
<rect width="40" height="40" fill="white"/>
</clipPath>
</defs>
</svg>
