<svg width="20" height="21" viewBox="0 0 20 21" fill="none" xmlns="http://www.w3.org/2000/svg">
<path d="M18.7511 10.6951C18.7511 9.97569 18.6915 9.45069 18.5626 8.90625H10.1797V12.1534H15.1003C15.0011 12.9604 14.4654 14.1757 13.2749 14.9923L13.2582 15.101L15.9087 17.1133L16.0924 17.1312C17.7788 15.6048 18.7511 13.359 18.7511 10.6951Z" fill="#4285F4"/>
<path d="M10.1783 19.25C12.589 19.25 14.6128 18.4722 16.091 17.1305L13.2735 14.9916C12.5196 15.5068 11.5077 15.8666 10.1783 15.8666C7.81724 15.8666 5.8133 14.3402 5.09895 12.2305L4.99424 12.2392L2.23819 14.3295L2.20215 14.4277C3.67038 17.286 6.68625 19.25 10.1783 19.25Z" fill="#34A853"/>
<path d="M5.10014 12.2302C4.91165 11.6858 4.80257 11.1024 4.80257 10.4997C4.80257 9.89686 4.91165 9.31355 5.09022 8.76911L5.08523 8.65316L2.29464 6.5293L2.20333 6.57186C1.5982 7.75798 1.25098 9.08995 1.25098 10.4997C1.25098 11.9094 1.5982 13.2413 2.20333 14.4274L5.10014 12.2302Z" fill="#FBBC05"/>
<path d="M10.1784 5.13331C11.8549 5.13331 12.9859 5.84303 13.6307 6.43612L16.1506 4.025C14.603 2.61528 12.5891 1.75 10.1784 1.75C6.68628 1.75 3.67039 3.71387 2.20215 6.57218L5.08905 8.76944C5.81332 6.65972 7.81728 5.13331 10.1784 5.13331Z" fill="#EB4335"/>
</svg>
