<svg width="20" height="20" viewBox="0 0 20 20" fill="none" xmlns="http://www.w3.org/2000/svg">
<g clip-path="url(#clip0_58_3743)">
<path d="M9.16797 1.70866V3.38533C7.4869 3.59923 5.95035 4.44522 4.87063 5.75134C3.7909 7.05747 3.24904 8.72571 3.35515 10.417C3.46127 12.1083 4.20741 13.6958 5.44192 14.8567C6.67643 16.0176 8.30668 16.6649 10.0013 16.667C11.6251 16.667 13.1932 16.0743 14.4111 15.0003C15.629 13.9263 16.4131 12.4447 16.6163 10.8337H18.2938C17.8755 15.0445 14.3221 18.3337 10.0013 18.3337C5.3988 18.3337 1.66797 14.6028 1.66797 10.0003C1.66797 5.67949 4.95714 2.12616 9.16797 1.70866ZM16.668 4.51199L10.0013 11.1787L8.82297 10.0003L15.4896 3.33366H11.668V1.66699H18.3346V8.33366H16.668V4.51199Z" fill="#4C4989"/>
</g>
<defs>
<clipPath id="clip0_58_3743">
<rect width="20" height="20" fill="white"/>
</clipPath>
</defs>
</svg>
