<svg width="41" height="40" viewBox="0 0 41 40" fill="none" xmlns="http://www.w3.org/2000/svg">
<path d="M37.8913 8H36.1522C35.8461 8 35.5557 8.096 35.2826 8.24533V4C35.2826 1.79467 34.1122 0 32.6739 0H30.9348C29.4965 0 28.3261 1.79467 28.3261 4V13.3333H12.6739V4C12.6739 1.79467 11.5035 0 10.0652 0H8.32609C6.88783 0 5.71739 1.79467 5.71739 4V8.24533C5.44435 8.096 5.15391 8 4.84783 8H3.1087C1.67043 8 0.5 9.79467 0.5 12V28C0.5 30.2053 1.67043 32 3.1087 32H4.84783C5.15391 32 5.44435 31.904 5.71739 31.7547V36C5.71739 38.2053 6.88783 40 8.32609 40H10.0652C11.5035 40 12.6739 38.2053 12.6739 36V26.6667H28.3261V36C28.3261 38.2053 29.4965 40 30.9348 40H32.6739C34.1122 40 35.2826 38.2053 35.2826 36V31.7547C35.5557 31.904 35.8461 32 36.1522 32H37.8913C39.3296 32 40.5 30.2053 40.5 28V12C40.5 9.79467 39.3296 8 37.8913 8ZM5.71739 28C5.71739 28.7347 5.32696 29.3333 4.84783 29.3333H3.1087C2.62957 29.3333 2.23913 28.7347 2.23913 28V12C2.23913 11.2653 2.62957 10.6667 3.1087 10.6667H4.84783C5.32696 10.6667 5.71739 11.2653 5.71739 12V28ZM10.9348 36C10.9348 36.7347 10.5443 37.3333 10.0652 37.3333H8.32609C7.84696 37.3333 7.45652 36.7347 7.45652 36V28V12V4C7.45652 3.26533 7.84696 2.66667 8.32609 2.66667H10.0652C10.5443 2.66667 10.9348 3.26533 10.9348 4V36ZM28.3261 24H12.6739V16H28.3261V24ZM33.5435 12V28V36C33.5435 36.7347 33.153 37.3333 32.6739 37.3333H30.9348C30.4557 37.3333 30.0652 36.7347 30.0652 36V4C30.0652 3.26533 30.4557 2.66667 30.9348 2.66667H32.6739C33.153 2.66667 33.5435 3.26533 33.5435 4V12ZM38.7609 28C38.7609 28.7347 38.3704 29.3333 37.8913 29.3333H36.1522C35.673 29.3333 35.2826 28.7347 35.2826 28V12C35.2826 11.2653 35.673 10.6667 36.1522 10.6667H37.8913C38.3704 10.6667 38.7609 11.2653 38.7609 12V28Z" fill="#4C4989"/>
</svg>
