<svg width="41" height="40" viewBox="0 0 41 40" fill="none" xmlns="http://www.w3.org/2000/svg">
<path d="M38.0217 0H12.7324C11.3657 0 10.2539 1.47111 10.2539 3.27952V6.19796L7.85706 3.02646L3.7965 8.39929L5.63963 10.8381L0.5 21.5202L5.71908 32.3143H3.74837C2.21876 32.3143 0.974377 33.9608 0.974377 35.9848V39.9998H14.8029V35.9848C14.8029 33.9608 13.5586 32.3143 12.029 32.3143H8.53878L3.31767 21.516L6.7612 14.359C6.64541 16.5847 7.22737 18.8626 8.51042 20.5603L9.49605 21.8646L10.2539 20.8619V27.8508C10.2539 29.6592 11.3657 31.1303 12.7324 31.1303H19.8209L19.4021 36.8572H17.4419V40H19.1723H31.5816H33.312V36.8572H31.3518L30.933 31.1303H38.0215C39.3881 31.1303 40.5 29.6592 40.5 27.8508V3.27962C40.5002 1.47121 39.3883 0 38.0217 0ZM12.0289 35.4571C12.2488 35.4571 12.4277 35.6938 12.4277 35.9848V36.8571H3.34954V35.9848C3.34954 35.6938 3.52845 35.4571 3.74837 35.4571H12.0289ZM8.7812 8.92897C8.75956 8.9543 8.73777 8.97911 8.71636 9.00495C8.64777 9.08765 8.58019 9.17201 8.51425 9.25925C8.513 9.26091 8.51175 9.26235 8.51042 9.26401C8.50909 9.26566 8.50808 9.26732 8.50683 9.26907C8.44105 9.35632 8.3773 9.44563 8.31487 9.53629C8.29511 9.56503 8.27597 9.59429 8.25659 9.62333C8.22901 9.66448 8.20081 9.705 8.17394 9.74697L7.15557 8.3995L7.85706 7.4712L8.87542 8.81868C8.84347 8.85444 8.81253 8.89207 8.7812 8.92897ZM9.59105 17.2949C9.00136 15.914 8.96472 14.2292 9.47988 12.8101C9.48347 12.8003 9.48707 12.7905 9.49066 12.7808C9.50871 12.7319 9.52746 12.6833 9.54683 12.6349C9.55199 12.622 9.55738 12.6093 9.56269 12.5965C9.58136 12.5509 9.6005 12.5055 9.6205 12.4607C9.62714 12.4457 9.63402 12.431 9.64082 12.416C9.66011 12.3734 9.6798 12.3309 9.70019 12.289C9.70847 12.2721 9.71714 12.2553 9.72558 12.2385C9.74527 12.199 9.76519 12.1596 9.7859 12.1208C9.79644 12.1012 9.80754 12.0818 9.81824 12.0623C9.83777 12.0268 9.8573 11.9913 9.87761 11.9563C9.89152 11.9324 9.90613 11.9091 9.92043 11.8856C9.93863 11.8555 9.95652 11.8252 9.97535 11.7956C9.99519 11.7643 10.016 11.7339 10.0365 11.7032C10.0508 11.6818 10.0647 11.66 10.0793 11.6389C10.1153 11.587 10.1521 11.5362 10.1899 11.4861C10.232 11.4304 10.275 11.3765 10.3188 11.324C10.3314 11.3088 10.3443 11.2945 10.3571 11.2795C10.3889 11.2422 10.4211 11.2052 10.4538 11.1697C10.4679 11.1543 10.4823 11.1395 10.4965 11.1244C10.5292 11.09 10.562 11.056 10.5954 11.0232C10.6089 11.0098 10.6226 10.9968 10.6364 10.9836C10.6719 10.9496 10.7079 10.9164 10.7441 10.8843C10.7557 10.8739 10.7674 10.8636 10.7792 10.8535C10.8198 10.8184 10.8609 10.7845 10.9023 10.7518C10.91 10.7456 10.9178 10.7392 10.9255 10.7333C11.2314 10.4958 11.5579 10.3221 11.8941 10.212C11.8995 10.2103 11.9049 10.2083 11.9103 10.2065C11.9631 10.1895 12.0162 10.1743 12.0695 10.1605C12.074 10.1593 12.0783 10.158 12.0829 10.1567C12.1372 10.1429 12.1918 10.1309 12.2465 10.1202C12.2497 10.1196 12.2529 10.1189 12.2561 10.1183C12.3115 10.1078 12.3671 10.0991 12.4226 10.0919C12.4254 10.0916 12.4281 10.0912 12.4308 10.0908C12.4862 10.0839 12.5417 10.0786 12.5972 10.0751C12.6007 10.0749 12.604 10.0746 12.6074 10.0744C12.6615 10.071 12.7156 10.0694 12.7697 10.0692C12.7747 10.0692 12.7797 10.0691 12.7848 10.0691C12.9378 10.0694 13.0907 10.0822 13.2426 10.1075C13.246 10.1081 13.2493 10.1089 13.2526 10.1094C13.3186 10.1207 13.3844 10.135 13.45 10.1511C13.4692 10.1558 13.4884 10.1609 13.5076 10.166C13.5583 10.1796 13.6087 10.1949 13.659 10.2112C13.6813 10.2186 13.7037 10.2253 13.7258 10.2331C13.7855 10.2542 13.8449 10.2774 13.904 10.3024C13.9348 10.3156 13.9654 10.3302 13.9961 10.3445C14.0349 10.3625 14.0736 10.3807 14.112 10.4005C14.1454 10.4178 14.1786 10.4362 14.2117 10.4547C14.2425 10.4719 14.273 10.4899 14.3036 10.5082C14.3376 10.5288 14.3715 10.5492 14.405 10.5713C14.437 10.5923 14.4686 10.6148 14.5003 10.637C14.5269 10.6557 14.5538 10.6736 14.5801 10.6931L12.0857 13.9935L9.59105 17.2949ZM21.7884 36.8571L22.2073 31.1302H28.5469L28.9657 36.8571H21.7884ZM38.125 27.8507C38.125 27.9261 38.0786 27.9875 38.0216 27.9875H30.7033H20.0508H12.7324C12.6754 27.9875 12.629 27.9262 12.629 27.8507V24.9243H38.1251V27.8507H38.125ZM38.125 21.7816H12.629V17.719L18.0334 10.5681L17.0477 9.2639C16.448 8.47031 15.752 7.88005 15.0094 7.49085C15.0029 7.48754 14.9965 7.48454 14.99 7.48123C14.9057 7.4374 14.8208 7.39584 14.7353 7.35729C14.7103 7.34602 14.6848 7.33599 14.6597 7.32514C14.5933 7.2964 14.5269 7.26828 14.4597 7.24265C14.417 7.22631 14.3739 7.21184 14.3309 7.19675C14.2817 7.17959 14.2325 7.16191 14.183 7.14641C14.1245 7.1279 14.0657 7.11177 14.0068 7.09544C13.9729 7.08624 13.9392 7.07642 13.9052 7.06795C13.8335 7.04996 13.7614 7.03445 13.689 7.01977C13.668 7.01553 13.6472 7.01099 13.6262 7.00706C13.544 6.99155 13.4614 6.97873 13.3786 6.96788C13.3676 6.96643 13.3568 6.96488 13.3459 6.96343C13.2558 6.95217 13.1653 6.94369 13.0747 6.9378C13.0711 6.93759 13.0677 6.93728 13.0642 6.93707C12.9193 6.92798 12.7743 6.92312 12.6287 6.92787V3.27962C12.6287 3.20416 12.6751 3.14286 12.7321 3.14286H38.0214C38.0784 3.14286 38.1248 3.20426 38.1248 3.27962V21.7816H38.125Z" fill="#4C4989"/>
</svg>
