<svg width="41" height="40" viewBox="0 0 41 40" fill="none" xmlns="http://www.w3.org/2000/svg">
<g clip-path="url(#clip0_19_235)">
<path d="M20.4219 36.4453C21.8457 36.4453 23 35.291 23 33.8672C23 32.4433 21.8457 31.2891 20.4219 31.2891C18.998 31.2891 17.8438 32.4433 17.8438 33.8672C17.8438 35.291 18.998 36.4453 20.4219 36.4453Z" fill="#4C4989"/>
<path d="M40.0805 12.0987C34.9454 6.58913 27.9917 3.55477 20.4997 3.55469C13.0083 3.55477 6.05465 6.58913 0.919429 12.0987C0.331149 12.73 0.365914 13.7187 0.997163 14.3071C1.62849 14.8954 2.61716 14.8607 3.20552 14.2294C7.74301 9.36093 13.8849 6.67976 20.5003 6.67968C27.1151 6.67976 33.2569 9.36093 37.7944 14.2294C38.1022 14.5595 38.5194 14.7265 38.9378 14.7265C39.3193 14.7265 39.7017 14.5876 40.0028 14.3071C40.634 13.7187 40.6689 12.73 40.0805 12.0987Z" fill="#4C4989"/>
<path d="M34.3431 18.5514C30.5473 14.7269 25.631 12.6207 20.4997 12.6208C15.3673 12.6209 10.4509 14.7272 6.65624 18.5515C6.04843 19.1641 6.05226 20.1534 6.66484 20.7612C7.27741 21.369 8.26671 21.3652 8.87452 20.7526C12.078 17.524 16.2066 15.7459 20.4997 15.7458C24.7918 15.7457 28.9203 17.5239 32.125 20.7528C32.4305 21.0605 32.8322 21.2146 33.2341 21.2146C33.6319 21.2146 34.03 21.0635 34.3349 20.7611C34.9473 20.1532 34.951 19.1639 34.3431 18.5514Z" fill="#4C4989"/>
<path d="M28.0899 25.0228C26.057 23.0088 23.1432 21.7578 20.4852 21.7578C20.4849 21.7578 20.4844 21.7578 20.4841 21.7578H20.3715C20.371 21.7578 20.3708 21.7578 20.3703 21.7578C17.7123 21.7578 14.7982 23.0089 12.7655 25.0228C12.1525 25.6301 12.1479 26.6194 12.7553 27.2325C13.0608 27.5408 13.463 27.6953 13.8653 27.6953C14.2627 27.6953 14.6603 27.5446 14.9649 27.2428C16.412 25.8091 18.5336 24.8828 20.3705 24.8828C20.3707 24.8828 20.371 24.8828 20.3713 24.8828H20.4843C20.4846 24.8828 20.4847 24.8828 20.485 24.8828C22.3217 24.8828 24.4434 25.8091 25.8904 27.2428C26.5034 27.8501 27.4928 27.8457 28.1001 27.2325C28.7075 26.6195 28.7029 25.6301 28.0899 25.0228Z" fill="#4C4989"/>
</g>
<defs>
<clipPath id="clip0_19_235">
<rect width="40" height="40" fill="white" transform="translate(0.5)"/>
</clipPath>
</defs>
</svg>
