<svg width="41" height="40" viewBox="0 0 41 40" fill="none" xmlns="http://www.w3.org/2000/svg">
<mask id="path-1-inside-1_19_227" fill="white">
<path d="M21.6274 7.67163H16.9807C16.3238 7.67163 15.8088 8.20897 15.8088 8.84351V25.5318C15.8088 26.179 16.3335 26.7037 16.9807 26.7037C17.6279 26.7037 18.1526 26.179 18.1526 25.5318V19.4484C19.2401 19.4423 20.8316 19.4343 21.6275 19.4343C23.1982 19.4343 24.6876 18.8264 25.8212 17.7226C26.9689 16.6051 27.601 15.1243 27.601 13.553C27.601 11.9816 26.9689 10.5008 25.8212 9.38319C24.6875 8.27952 23.1982 7.67163 21.6274 7.67163ZM21.6274 17.0905C20.8362 17.0905 19.2673 17.0984 18.1782 17.1045C18.1584 13.4547 18.1698 14.682 18.1561 10.0154H21.6274C23.595 10.0154 25.2572 11.6354 25.2572 13.553C25.2572 15.4705 23.595 17.0905 21.6274 17.0905Z"/>
</mask>
<path d="M21.6274 7.67163H16.9807C16.3238 7.67163 15.8088 8.20897 15.8088 8.84351V25.5318C15.8088 26.179 16.3335 26.7037 16.9807 26.7037C17.6279 26.7037 18.1526 26.179 18.1526 25.5318V19.4484C19.2401 19.4423 20.8316 19.4343 21.6275 19.4343C23.1982 19.4343 24.6876 18.8264 25.8212 17.7226C26.9689 16.6051 27.601 15.1243 27.601 13.553C27.601 11.9816 26.9689 10.5008 25.8212 9.38319C24.6875 8.27952 23.1982 7.67163 21.6274 7.67163ZM21.6274 17.0905C20.8362 17.0905 19.2673 17.0984 18.1782 17.1045C18.1584 13.4547 18.1698 14.682 18.1561 10.0154H21.6274C23.595 10.0154 25.2572 11.6354 25.2572 13.553C25.2572 15.4705 23.595 17.0905 21.6274 17.0905Z" fill="#4C4989"/>
<path d="M18.1526 19.4484L18.1358 16.4485L15.1526 16.4652V19.4484H18.1526ZM25.8212 17.7226L23.7284 15.5732L23.7283 15.5732L25.8212 17.7226ZM25.8212 9.38319L27.9141 7.23382L27.9139 7.23362L25.8212 9.38319ZM18.1782 17.1045L15.1783 17.1208L15.1946 20.1213L18.195 20.1045L18.1782 17.1045ZM18.1561 10.0154V7.01538H15.1473L15.1561 10.0242L18.1561 10.0154ZM21.6274 4.67163H16.9807V10.6716H21.6274V4.67163ZM16.9807 4.67163C14.6299 4.67163 12.8088 6.58946 12.8088 8.84351H18.8088C18.8088 9.82849 18.0178 10.6716 16.9807 10.6716V4.67163ZM12.8088 8.84351V25.5318H18.8088V8.84351H12.8088ZM12.8088 25.5318C12.8088 27.8358 14.6767 29.7037 16.9807 29.7037V23.7037C17.9904 23.7037 18.8088 24.5221 18.8088 25.5318H12.8088ZM16.9807 29.7037C19.2848 29.7037 21.1526 27.8358 21.1526 25.5318H15.1526C15.1526 24.5221 15.971 23.7037 16.9807 23.7037V29.7037ZM21.1526 25.5318V19.4484H15.1526V25.5318H21.1526ZM18.1694 22.4484C19.2594 22.4423 20.8417 22.4343 21.6275 22.4343V16.4343C20.8214 16.4343 19.2208 16.4424 18.1358 16.4485L18.1694 22.4484ZM21.6275 22.4343C23.9864 22.4343 26.2249 21.5167 27.914 19.8721L23.7283 15.5732C23.1503 16.1361 22.41 16.4343 21.6275 16.4343V22.4343ZM27.914 19.8721C29.629 18.2022 30.601 15.9514 30.601 13.553H24.601C24.601 14.2972 24.3088 15.0081 23.7284 15.5732L27.914 19.8721ZM30.601 13.553C30.601 11.1545 29.629 8.90372 27.9141 7.23382L23.7283 11.5326C24.3088 12.0978 24.601 12.8088 24.601 13.553H30.601ZM27.9139 7.23362C26.2247 5.58919 23.9864 4.67163 21.6274 4.67163V10.6716C22.41 10.6716 23.1503 10.9699 23.7285 11.5328L27.9139 7.23362ZM21.6274 14.0905C20.8261 14.0905 19.2481 14.0985 18.1614 14.1046L18.195 20.1045C19.2865 20.0984 20.8463 20.0905 21.6274 20.0905V14.0905ZM21.1782 17.0882C21.1583 13.4414 21.1698 14.689 21.1561 10.0066L15.1561 10.0242C15.1697 14.675 15.1584 13.4679 15.1783 17.1208L21.1782 17.0882ZM18.1561 13.0154H21.6274V7.01538H18.1561V13.0154ZM21.6274 13.0154C21.7791 13.0154 21.9483 13.079 22.0863 13.2135C22.2241 13.3478 22.2572 13.4778 22.2572 13.553H28.2572C28.2572 9.90626 25.1787 7.01538 21.6274 7.01538V13.0154ZM22.2572 13.553C22.2572 13.6281 22.2241 13.7581 22.0863 13.8924C21.9483 14.0269 21.7791 14.0905 21.6274 14.0905V20.0905C25.1787 20.0905 28.2572 17.1997 28.2572 13.553H22.2572Z" fill="#4C4989" mask="url(#path-1-inside-1_19_227)"/>
<mask id="path-3-inside-2_19_227" fill="white">
<path d="M32.6534 5.03406C29.4072 1.78781 25.091 0 20.5 0C15.9089 0 11.5928 1.78781 8.34653 5.03406C-1.09058 14.4712 3.39169 30.739 16.4375 33.8911V38.0469C16.4375 39.1238 17.3136 40 18.3906 40H22.6093C23.6863 40 24.5625 39.1238 24.5625 38.0469V33.8911C37.6208 30.7359 42.0839 14.4645 32.6534 5.03406ZM22.2187 37.6562H18.7812V34.2899C19.9211 34.403 21.0789 34.403 22.2187 34.2899V37.6562ZM23.1802 31.7902C14.145 33.4389 5.65622 26.5484 5.65622 17.1875C5.65622 9.00266 12.315 2.34375 20.5 2.34375C28.6849 2.34375 35.3437 9.00266 35.3437 17.1875C35.3437 24.3529 30.2408 30.5017 23.1802 31.7902Z"/>
</mask>
<path d="M32.6534 5.03406C29.4072 1.78781 25.091 0 20.5 0C15.9089 0 11.5928 1.78781 8.34653 5.03406C-1.09058 14.4712 3.39169 30.739 16.4375 33.8911V38.0469C16.4375 39.1238 17.3136 40 18.3906 40H22.6093C23.6863 40 24.5625 39.1238 24.5625 38.0469V33.8911C37.6208 30.7359 42.0839 14.4645 32.6534 5.03406ZM22.2187 37.6562H18.7812V34.2899C19.9211 34.403 21.0789 34.403 22.2187 34.2899V37.6562ZM23.1802 31.7902C14.145 33.4389 5.65622 26.5484 5.65622 17.1875C5.65622 9.00266 12.315 2.34375 20.5 2.34375C28.6849 2.34375 35.3437 9.00266 35.3437 17.1875C35.3437 24.3529 30.2408 30.5017 23.1802 31.7902Z" fill="#4C4989"/>
<path d="M16.4375 33.8911H19.4375V31.5296L17.142 30.975L16.4375 33.8911ZM24.5625 33.8911L23.8579 30.975L21.5625 31.5296V33.8911H24.5625ZM22.2187 37.6562V40.6562H25.2187V37.6562H22.2187ZM18.7812 37.6562H15.7812V40.6562H18.7812V37.6562ZM18.7812 34.2899L19.0775 31.3046L15.7812 30.9774V34.2899H18.7812ZM22.2187 34.2899H25.2187V30.9774L21.9224 31.3046L22.2187 34.2899ZM23.1802 31.7902L23.7187 34.7414H23.7187L23.1802 31.7902ZM34.7747 2.91277C30.9659 -0.89614 25.8866 -3 20.5 -3V3C24.2954 3 27.8485 4.47177 30.532 7.15536L34.7747 2.91277ZM20.5 -3C15.1133 -3 10.0341 -0.896127 6.22521 2.91274L10.4678 7.15538C13.1515 4.47175 16.7046 3 20.5 3V-3ZM6.22521 2.91274C-4.85427 13.9922 0.390904 33.1003 15.7329 36.8072L17.142 30.975C6.39247 28.3777 2.67312 14.9501 10.4678 7.15538L6.22521 2.91274ZM13.4375 33.8911V38.0469H19.4375V33.8911H13.4375ZM13.4375 38.0469C13.4375 40.7807 15.6568 43 18.3906 43V37C18.9705 37 19.4375 37.467 19.4375 38.0469H13.4375ZM18.3906 43H22.6093V37H18.3906V43ZM22.6093 43C25.3431 43 27.5625 40.7807 27.5625 38.0469H21.5625C21.5625 37.467 22.0294 37 22.6093 37V43ZM27.5625 38.0469V33.8911H21.5625V38.0469H27.5625ZM25.267 36.8072C40.6249 33.0964 45.8453 13.9832 34.7747 2.91273L30.5321 7.15539C38.3226 14.9459 34.6168 28.3754 23.8579 30.975L25.267 36.8072ZM22.2187 34.6562H18.7812V40.6562H22.2187V34.6562ZM21.7812 37.6562V34.2899H15.7812V37.6562H21.7812ZM18.4849 37.2753C19.8218 37.4079 21.1781 37.4079 22.515 37.2753L21.9224 31.3046C20.9796 31.3982 20.0203 31.3982 19.0775 31.3046L18.4849 37.2753ZM19.2187 34.2899V37.6562H25.2187V34.2899H19.2187ZM22.6416 28.8389C15.4202 30.1567 8.65622 24.6472 8.65622 17.1875H2.65622C2.65622 28.4495 12.8698 36.7211 23.7187 34.7414L22.6416 28.8389ZM8.65622 17.1875C8.65622 10.6595 13.9719 5.34375 20.5 5.34375V-0.65625C10.6582 -0.65625 2.65622 7.34581 2.65622 17.1875H8.65622ZM20.5 5.34375C27.028 5.34375 32.3437 10.6595 32.3437 17.1875H38.3437C38.3437 7.34581 30.3417 -0.65625 20.5 -0.65625V5.34375ZM32.3437 17.1875C32.3437 22.9098 28.2707 27.8117 22.6416 28.8389L23.7187 34.7414C32.2109 33.1917 38.3437 25.7959 38.3437 17.1875H32.3437Z" fill="#4C4989" mask="url(#path-3-inside-2_19_227)"/>
</svg>
