<svg width="41" height="40" viewBox="0 0 41 40" fill="none" xmlns="http://www.w3.org/2000/svg">
<path d="M5.6147 39.8789C6.4547 40.1219 7.4751 39.9912 8.06376 39.5586L40.0638 16.043C40.5427 15.6911 40.6352 15.2095 40.3019 14.804C39.9686 14.3984 39.2683 14.1406 38.5 14.1406H25.7282L36.291 1.69367C36.5992 1.33039 36.565 0.89953 36.2002 0.554687C35.8356 0.209844 35.1923 0 34.5 0H10.5C9.58149 0 8.7811 0.366562 8.55923 0.888749L0.55923 19.7169C0.410563 20.0669 0.54523 20.4375 0.924163 20.7216C1.30323 21.0058 1.88456 21.1719 2.50003 21.1719H11.9411L4.55936 38.545C4.33203 39.0797 4.77136 39.635 5.6147 39.8789ZM16.4408 20.2831C16.5895 19.9331 16.4548 19.5625 16.0759 19.2783C15.6968 18.9941 15.1155 18.8281 14.5 18.8281H5.05896L12.0631 2.34375H31.2718L20.709 14.7907C20.4007 15.154 20.435 15.5848 20.7998 15.9297C21.1643 16.2746 21.8076 16.4844 22.4999 16.4844H34.3472L10.6579 33.8928L16.4408 20.2831Z" fill="#4C4989"/>
</svg>
