<svg width="41" height="40" viewBox="0 0 41 40" fill="none" xmlns="http://www.w3.org/2000/svg">
<path d="M1.9934 31.1906C17.1944 25.5552 22.7506 36.9434 39.6239 31.1993C40.2501 30.9861 40.6252 30.1512 40.4618 29.3346C40.2983 28.518 39.6581 28.0288 39.032 28.2419C35.7193 29.3696 32.8479 29.7871 30.2478 29.7915L26.8504 22.6504C28.8586 25.9047 32.591 26.0923 34.7778 23.0596C35.7393 21.7263 36.2451 19.9845 36.2021 18.155C36.0579 12.0222 30.2962 9.27035 27.123 13.6707C25.5945 15.7905 25.3172 18.8046 26.1778 21.2366L21.5292 11.4654L28.4276 8.86923C30.57 8.06301 31.5825 4.86483 30.494 2.32107C29.7036 0.474095 28.0632 -0.406397 26.5051 0.180054L16.0613 4.11048C13.3535 5.12963 12.1409 9.23479 13.6277 12.3602L16.7844 18.9953C14.5088 20.8374 7.29157 26.6742 7.21493 26.7434C5.40333 26.9932 3.46321 27.4681 1.35271 28.2505C0.730219 28.4813 0.368977 29.3265 0.545926 30.1385C0.722798 30.9505 1.37114 31.4214 1.9934 31.1906ZM28.8303 15.7648C29.9334 14.2351 31.7748 14.1657 32.9443 15.6002C34.116 17.0373 34.1727 19.4373 33.0706 20.9656C31.9688 22.4935 30.1284 22.5676 28.9565 21.1303C27.7848 19.6931 27.7282 17.2931 28.8303 15.7648ZM19.3935 18.6826L15.6191 10.7489C14.9525 9.34768 15.4952 7.50488 16.711 7.04732L27.1548 3.11689C27.66 2.92657 28.1912 3.21216 28.4474 3.81063C28.8008 4.63661 28.4705 5.67177 27.7778 5.93249L19.3927 9.08818C18.6464 9.36907 18.3131 10.5031 18.7219 11.3623L27.4159 29.6366C21.9483 29.038 17.5057 26.8874 11.8803 26.5608L19.0156 20.7868C19.5655 20.3419 19.7348 19.3998 19.3935 18.6826Z" fill="#4C4989"/>
<path d="M39.0314 35.3738C22.8877 40.8696 17.2229 29.4985 1.35197 35.3824C0.729487 35.6132 0.368244 36.4584 0.545194 37.2704C0.722143 38.0823 1.37049 38.5534 1.99282 38.3225C17.1938 32.687 22.75 44.0753 39.6233 38.3312C40.2495 38.118 40.6246 37.2831 40.4612 36.4665C40.2977 35.6498 39.6575 35.1607 39.0314 35.3738Z" fill="#4C4989"/>
</svg>
