<svg width="40" height="40" viewBox="0 0 40 40" fill="none" xmlns="http://www.w3.org/2000/svg">
<g clip-path="url(#clip0_69_1987)">
<rect width="40" height="40" fill="#4C4989" fill-opacity="0.1"/>
<path d="M22.5 27.5C22.5 28.163 22.2366 28.7989 21.7678 29.2678C21.2989 29.7366 20.663 30 20 30C19.337 30 18.7011 29.7366 18.2322 29.2678C17.7634 28.7989 17.5 28.163 17.5 27.5C17.5 26.837 17.7634 26.2011 18.2322 25.7322C18.7011 25.2634 19.337 25 20 25C20.663 25 21.2989 25.2634 21.7678 25.7322C22.2366 26.2011 22.5 26.837 22.5 27.5ZM18.75 10C17.0924 10 15.5027 10.6585 14.3306 11.8306C13.1585 13.0027 12.5 14.5924 12.5 16.25H17.5C17.5 15.9185 17.6317 15.6005 17.8661 15.3661C18.1005 15.1317 18.4185 15 18.75 15H20.365C20.5803 15.0001 20.7892 15.0729 20.9578 15.2066C21.1265 15.3404 21.2451 15.5271 21.2943 15.7367C21.3435 15.9462 21.3204 16.1663 21.2289 16.3611C21.1374 16.5559 20.9827 16.7141 20.79 16.81L17.5 18.455V22.5H22.5V21.545L23.0275 21.28C24.2266 20.6797 25.188 19.6923 25.756 18.4776C26.3241 17.2629 26.4655 15.8921 26.1575 14.587C25.8494 13.2819 25.1099 12.119 24.0586 11.2865C23.0074 10.454 21.7059 10.0007 20.365 10H18.75Z" fill="#FEE7C8"/>
<path d="M0 20C0 14.6957 2.10714 9.60859 5.85786 5.85786C9.60859 2.10714 14.6957 0 20 0C25.3043 0 30.3914 2.10714 34.1421 5.85786C37.8929 9.60859 40 14.6957 40 20C40 25.3043 37.8929 30.3914 34.1421 34.1421C30.3914 37.8929 25.3043 40 20 40C14.6957 40 9.60859 37.8929 5.85786 34.1421C2.10714 30.3914 0 25.3043 0 20ZM20 5C18.0302 5 16.0796 5.38799 14.2597 6.14181C12.4399 6.89563 10.7863 8.00052 9.3934 9.3934C8.00052 10.7863 6.89563 12.4399 6.14181 14.2597C5.38799 16.0796 5 18.0302 5 20C5 21.9698 5.38799 23.9204 6.14181 25.7403C6.89563 27.5601 8.00052 29.2137 9.3934 30.6066C10.7863 31.9995 12.4399 33.1044 14.2597 33.8582C16.0796 34.612 18.0302 35 20 35C23.9782 35 27.7936 33.4196 30.6066 30.6066C33.4196 27.7936 35 23.9782 35 20C35 16.0218 33.4196 12.2064 30.6066 9.3934C27.7936 6.58035 23.9782 5 20 5Z" fill="#FEE7C8"/>
</g>
<defs>
<clipPath id="clip0_69_1987">
<rect width="40" height="40" fill="white"/>
</clipPath>
</defs>
</svg>
