<svg width="20" height="20" viewBox="0 0 20 20" fill="none" xmlns="http://www.w3.org/2000/svg">
<g clip-path="url(#clip0_54_2264)">
<path fill-rule="evenodd" clip-rule="evenodd" d="M9.99871 3.33398C11.7668 3.33398 13.4625 4.03636 14.7128 5.28661C15.963 6.53685 16.6654 8.23254 16.6654 10.0007C16.6654 11.7688 15.963 13.4645 14.7128 14.7147C13.4625 15.9649 11.7668 16.6673 9.99871 16.6673C8.2306 16.6673 6.5349 15.9649 5.28466 14.7147C4.03442 13.4645 3.33204 11.7688 3.33204 10.0007C3.33204 8.23254 4.03442 6.53685 5.28466 5.28661C6.5349 4.03636 8.2306 3.33398 9.99871 3.33398ZM2.66537 4.50065C2.7297 4.40968 2.81162 4.33253 2.90629 4.27378C3.00095 4.21502 3.10644 4.17584 3.21651 4.15855C3.32658 4.14127 3.439 4.14624 3.54712 4.17316C3.65523 4.20008 3.75685 4.24841 3.84597 4.31529C3.93508 4.38216 4.00988 4.46623 4.06594 4.56252C4.122 4.65881 4.15818 4.76536 4.17234 4.87588C4.1865 4.98639 4.17836 5.09862 4.14839 5.20594C4.11843 5.31325 4.06724 5.41346 3.99787 5.50065C3.02234 6.79784 2.49605 8.37758 2.49871 10.0007C2.49871 11.6898 3.05704 13.2465 3.99787 14.5007C4.13048 14.6775 4.18742 14.8997 4.15616 15.1185C4.12491 15.3373 4.00802 15.5347 3.83121 15.6673C3.65439 15.7999 3.43215 15.8569 3.21336 15.8256C2.99456 15.7944 2.79715 15.6775 2.66454 15.5007C1.47263 13.915 0.829385 11.9843 0.832039 10.0007C0.832039 7.93815 1.51454 6.03232 2.66537 4.50065ZM16.1654 4.33398C16.3422 4.20138 16.5644 4.14444 16.7832 4.17569C17.002 4.20695 17.1994 4.32384 17.332 4.50065C18.5242 6.08623 19.1678 8.01687 19.1654 10.0007C19.1654 12.0632 18.4829 13.969 17.332 15.5007C17.2677 15.5916 17.1858 15.6688 17.0911 15.7275C16.9965 15.7863 16.891 15.8255 16.7809 15.8427C16.6708 15.86 16.5584 15.8551 16.4503 15.8281C16.3422 15.8012 16.2406 15.7529 16.1514 15.686C16.0623 15.6191 15.9875 15.5351 15.9315 15.4388C15.8754 15.3425 15.8392 15.2359 15.8251 15.1254C15.8109 15.0149 15.819 14.9027 15.849 14.7954C15.879 14.6881 15.9302 14.5878 15.9995 14.5007C16.9751 13.2035 17.5014 11.6237 17.4987 10.0007C17.4987 8.31148 16.9404 6.75482 15.9995 5.50065C15.8669 5.32384 15.81 5.10159 15.8412 4.8828C15.8725 4.66401 15.9886 4.46659 16.1654 4.33398ZM9.99871 5.00065C8.67262 5.00065 7.40085 5.52744 6.46317 6.46512C5.52549 7.4028 4.99871 8.67457 4.99871 10.0007C4.99871 11.3267 5.52549 12.5985 6.46317 13.5362C7.40085 14.4739 8.67262 15.0007 9.99871 15.0007C11.3248 15.0007 12.5966 14.4739 13.5342 13.5362C14.4719 12.5985 14.9987 11.3267 14.9987 10.0007C14.9987 8.67457 14.4719 7.4028 13.5342 6.46512C12.5966 5.52744 11.3248 5.00065 9.99871 5.00065ZM10.832 6.66732C11.1603 6.66732 11.4854 6.73198 11.7887 6.85762C12.0921 6.98326 12.3677 7.1674 12.5998 7.39955C12.832 7.6317 13.0161 7.9073 13.1417 8.21061C13.2674 8.51392 13.332 8.83901 13.332 9.16732C13.332 9.49562 13.2674 9.82071 13.1417 10.124C13.0161 10.4273 12.832 10.7029 12.5998 10.9351C12.3677 11.1672 12.0921 11.3514 11.7887 11.477C11.4854 11.6027 11.1603 11.6673 10.832 11.6673H9.16537V12.5007C9.16537 12.7217 9.07757 12.9336 8.92129 13.0899C8.76501 13.2462 8.55305 13.334 8.33204 13.334C8.11103 13.334 7.89906 13.2462 7.74278 13.0899C7.5865 12.9336 7.49871 12.7217 7.49871 12.5007V7.91732C7.49871 7.5858 7.6304 7.26785 7.86482 7.03343C8.09924 6.79901 8.41719 6.66732 8.74871 6.66732H10.832ZM10.832 8.33398H9.16537V10.0007H10.832C11.0531 10.0007 11.265 9.91285 11.4213 9.75657C11.5776 9.60029 11.6654 9.38833 11.6654 9.16732C11.6654 8.9463 11.5776 8.73434 11.4213 8.57806C11.265 8.42178 11.0531 8.33398 10.832 8.33398Z" fill="#4C4989" fill-opacity="0.7"/>
</g>
<defs>
<clipPath id="clip0_54_2264">
<rect width="20" height="20" fill="white"/>
</clipPath>
</defs>
</svg>
