<svg width="20" height="20" viewBox="0 0 20 20" fill="none" xmlns="http://www.w3.org/2000/svg">
<path d="M5.2926 12.7911L4.4401 11.9294C5.18122 11.1816 6.0301 10.6091 6.98677 10.2119C7.94344 9.81412 8.94788 9.61523 10.0001 9.61523C11.0518 9.61523 12.0565 9.81579 13.0143 10.2169C13.9726 10.618 14.8218 11.1919 15.5618 11.9386L14.7093 12.7911C14.0843 12.1661 13.3657 11.6836 12.5534 11.3436C11.7412 11.0036 10.8904 10.8333 10.0009 10.8327C9.11149 10.8322 8.26094 11.0025 7.44927 11.3436C6.6376 11.6847 5.91872 12.1672 5.2926 12.7911ZM1.75094 9.2494L0.898438 8.3969C2.11122 7.17801 3.50288 6.24301 5.07344 5.5919C6.64399 4.94079 8.2876 4.61523 10.0043 4.61523C11.7209 4.61523 13.3632 4.94079 14.9309 5.5919C16.5004 6.24301 17.8912 7.17801 19.1034 8.3969L18.2509 9.2494C17.1537 8.15218 15.8934 7.30857 14.4701 6.71857C13.0468 6.12857 11.557 5.83329 10.0009 5.83273C8.44483 5.83218 6.9551 6.12746 5.53177 6.71857C4.10844 7.30968 2.84816 8.15329 1.75094 9.2494ZM10.0009 17.4994L7.96094 15.4544C8.23094 15.1844 8.54177 14.9769 8.89344 14.8319C9.2451 14.6875 9.61372 14.6152 9.99927 14.6152C10.3848 14.6152 10.754 14.6875 11.1068 14.8319C11.4595 14.9763 11.7709 15.1838 12.0409 15.4544L10.0009 17.4994Z" fill="#4C4989"/>
</svg>
