<svg width="20" height="20" viewBox="0 0 20 20" fill="none" xmlns="http://www.w3.org/2000/svg">
<path d="M12.5 6.66602V4.16602H7.5V6.66602C7.5 6.88699 7.58778 7.09892 7.74404 7.25518C7.90029 7.41143 8.11222 7.49922 8.3332 7.49922H11.6668C11.7762 7.49922 11.8846 7.47766 11.9857 7.43579C12.0867 7.39392 12.1786 7.33255 12.256 7.25518C12.3333 7.17781 12.3947 7.08596 12.4366 6.98487C12.4784 6.88378 12.5 6.77543 12.5 6.66602Z" stroke="#344054" stroke-linecap="round" stroke-linejoin="round"/>
<path d="M2.5 4.16642H17.5M15.892 15.058L16.6668 4.16602H3.3332L4.1084 15.058C4.1232 15.2687 4.21748 15.4659 4.37216 15.6098C4.52684 15.7536 4.73038 15.8333 4.9416 15.8328H15.0584C15.2696 15.8332 15.4731 15.7535 15.6277 15.6097C15.7824 15.4658 15.8771 15.2687 15.892 15.058Z" stroke="#4C4989" stroke-linecap="round" stroke-linejoin="round"/>
</svg>
