<svg width="20" height="20" viewBox="0 0 20 20" fill="none" xmlns="http://www.w3.org/2000/svg">
<path d="M7.68103 2.29192H13.7194C13.7921 2.29166 13.8638 2.30956 13.9279 2.344C13.992 2.37844 14.0465 2.42833 14.0865 2.48915C14.1265 2.54996 14.1506 2.61979 14.1568 2.6923C14.163 2.76481 14.151 2.83772 14.1219 2.90442L11.7594 8.41858H15.7419C15.7752 8.41892 15.8078 8.42878 15.8357 8.44701C15.8636 8.46523 15.8858 8.49105 15.8995 8.52143C15.9133 8.55182 15.918 8.5855 15.9133 8.6185C15.9085 8.65151 15.8945 8.68248 15.8727 8.70775L7.75103 17.6336C7.72887 17.6667 7.69556 17.6908 7.65716 17.7015C7.61875 17.7122 7.57779 17.7087 7.5417 17.6918C7.50561 17.6749 7.47679 17.6455 7.46046 17.6092C7.44413 17.5728 7.44138 17.5318 7.4527 17.4936L8.25853 11.0436H4.5302C4.45779 11.0446 4.38627 11.0276 4.32202 10.9942C4.25778 10.9608 4.20281 10.912 4.16203 10.8521C4.12126 10.7923 4.09594 10.7233 4.08835 10.6512C4.08076 10.5792 4.09113 10.5064 4.11853 10.4394L7.26853 2.56275C7.30193 2.48119 7.35918 2.41161 7.43278 2.36314C7.50638 2.31466 7.59291 2.29038 7.68103 2.29192Z" stroke="#4C4989" stroke-width="1.5" stroke-linecap="round" stroke-linejoin="round"/>
</svg>
