<svg width="20" height="20" viewBox="0 0 20 20" fill="none" xmlns="http://www.w3.org/2000/svg">
<g clip-path="url(#clip0_54_2128)">
<path d="M0 19.5832C0.663041 19.5832 1.29893 19.3198 1.76777 18.8509C2.23661 18.3821 2.5 17.7462 2.5 17.0832C2.5 17.7462 2.76339 18.3821 3.23223 18.8509C3.70107 19.3198 4.33696 19.5832 5 19.5832C5.66304 19.5832 6.29893 19.3198 6.76777 18.8509C7.23661 18.3821 7.5 17.7462 7.5 17.0832C7.5 17.7462 7.76339 18.3821 8.23223 18.8509C8.70107 19.3198 9.33696 19.5832 10 19.5832C10.663 19.5832 11.2989 19.3198 11.7678 18.8509C12.2366 18.3821 12.5 17.7462 12.5 17.0832C12.5 17.7462 12.7634 18.3821 13.2322 18.8509C13.7011 19.3198 14.337 19.5832 15 19.5832C15.663 19.5832 16.2989 19.3198 16.7678 18.8509C17.2366 18.3821 17.5 17.7462 17.5 17.0832C17.5 17.7462 17.7634 18.3821 18.2322 18.8509C18.7011 19.3198 19.337 19.5832 20 19.5832M2.5 2.49984V2.08317C2.5 1.64114 2.67559 1.21722 2.98816 0.904659C3.30072 0.592099 3.72464 0.416504 4.16667 0.416504C4.60869 0.416504 5.03262 0.592099 5.34518 0.904659C5.65774 1.21722 5.83333 1.64114 5.83333 2.08317V10.4165C5.83333 11.9057 6.16667 13.7282 7.12917 14.3965C7.35583 14.554 7.64083 14.5832 7.91667 14.5832M10.8333 2.49984V2.08317C10.8333 1.64114 11.0089 1.21722 11.3215 0.904659C11.634 0.592099 12.058 0.416504 12.5 0.416504C12.942 0.416504 13.366 0.592099 13.6785 0.904659C13.9911 1.21722 14.1667 1.64114 14.1667 2.08317V10.4165C14.1667 11.9057 14.5 13.7282 15.4625 14.3965C15.6892 14.554 15.9742 14.5832 16.25 14.5832M5.83333 7.9165H14.1667M5.83333 4.58317H14.1667M5.8675 11.2498H14.2008" stroke="#4C4989"/>
</g>
<defs>
<clipPath id="clip0_54_2128">
<rect width="20" height="20" fill="white"/>
</clipPath>
</defs>
</svg>
