<svg width="30" height="30" viewBox="0 0 30 30" fill="none" xmlns="http://www.w3.org/2000/svg">
<g clip-path="url(#clip0_1181_16187)">
<rect width="30" height="30" fill="#4C4989" fill-opacity="0.1"/>
<path d="M16.875 20.625C16.875 21.1223 16.6775 21.5992 16.3258 21.9508C15.9742 22.3025 15.4973 22.5 15 22.5C14.5027 22.5 14.0258 22.3025 13.6742 21.9508C13.3225 21.5992 13.125 21.1223 13.125 20.625C13.125 20.1277 13.3225 19.6508 13.6742 19.2992C14.0258 18.9475 14.5027 18.75 15 18.75C15.4973 18.75 15.9742 18.9475 16.3258 19.2992C16.6775 19.6508 16.875 20.1277 16.875 20.625ZM14.0625 7.5C12.8193 7.5 11.627 7.99386 10.7479 8.87294C9.86886 9.75201 9.375 10.9443 9.375 12.1875H13.125C13.125 11.9389 13.2238 11.7004 13.3996 11.5246C13.5754 11.3488 13.8139 11.25 14.0625 11.25H15.2737C15.4352 11.2501 15.5919 11.3047 15.7184 11.405C15.8449 11.5053 15.9338 11.6454 15.9707 11.8025C16.0076 11.9597 15.9903 12.1247 15.9217 12.2708C15.853 12.4169 15.737 12.5356 15.5925 12.6075L13.125 13.8412V16.875H16.875V16.1588L17.2706 15.96C18.1699 15.5098 18.891 14.7692 19.317 13.8582C19.743 12.9472 19.8491 11.9191 19.6181 10.9402C19.3871 9.96143 18.8324 9.08924 18.044 8.46489C17.2555 7.84053 16.2795 7.50055 15.2737 7.5H14.0625Z" fill="#4C4989"/>
<path d="M0 15C0 11.0218 1.58035 7.20644 4.3934 4.3934C7.20644 1.58035 11.0218 0 15 0C18.9782 0 22.7936 1.58035 25.6066 4.3934C28.4196 7.20644 30 11.0218 30 15C30 18.9782 28.4196 22.7936 25.6066 25.6066C22.7936 28.4196 18.9782 30 15 30C11.0218 30 7.20644 28.4196 4.3934 25.6066C1.58035 22.7936 0 18.9782 0 15ZM15 3.75C13.5226 3.75 12.0597 4.04099 10.6948 4.60636C9.3299 5.17172 8.08971 6.00039 7.04505 7.04505C6.00039 8.08971 5.17172 9.3299 4.60636 10.6948C4.04099 12.0597 3.75 13.5226 3.75 15C3.75 16.4774 4.04099 17.9403 4.60636 19.3052C5.17172 20.6701 6.00039 21.9103 7.04505 22.955C8.08971 23.9996 9.3299 24.8283 10.6948 25.3936C12.0597 25.959 13.5226 26.25 15 26.25C17.9837 26.25 20.8452 25.0647 22.955 22.955C25.0647 20.8452 26.25 17.9837 26.25 15C26.25 12.0163 25.0647 9.15483 22.955 7.04505C20.8452 4.93526 17.9837 3.75 15 3.75Z" fill="#4C4989"/>
</g>
<defs>
<clipPath id="clip0_1181_16187">
<rect width="30" height="30" fill="white"/>
</clipPath>
</defs>
</svg>
