<svg width="20" height="20" viewBox="0 0 20 20" fill="none" xmlns="http://www.w3.org/2000/svg">
<path d="M9.99701 1.6665C7.49034 1.6665 5.86534 3.349 3.94367 3.96234C3.16201 4.21234 2.77117 4.3365 2.61284 4.51234C2.45451 4.68734 2.40867 4.94484 2.31617 5.45817C1.32451 10.9548 3.49117 16.0365 8.65784 18.0148C9.21201 18.2273 9.48951 18.3332 9.99951 18.3332C10.5095 18.3332 10.7878 18.2265 11.3428 18.014C16.5087 16.0365 18.6728 10.9548 17.6812 5.45817C17.5887 4.94484 17.542 4.68734 17.3837 4.5115C17.2253 4.33567 16.8353 4.2115 16.0537 3.96234C14.1312 3.349 12.5037 1.6665 9.99701 1.6665Z" stroke="#4C4989" stroke-width="1.5" stroke-linecap="round" stroke-linejoin="round"/>
<path d="M8.54048 8.2989C8.54048 8.2489 8.54715 7.96057 8.54881 7.5989C8.54881 7.26723 8.52048 6.9489 8.67881 6.65723C9.27048 5.4789 10.9705 5.5989 11.3905 6.7989C11.463 6.9964 11.468 7.3089 11.4655 7.5989C11.463 7.96807 11.4705 8.2989 11.4705 8.2989M8.61298 8.64973C7.71298 8.64973 7.26298 9.29973 7.16298 9.69973C7.06298 10.0997 7.06298 11.5497 7.12298 12.1497C7.32298 12.8997 7.82298 13.2097 8.31298 13.3097C8.76298 13.3497 10.663 13.3347 11.213 13.3347C12.013 13.3497 12.613 13.0497 12.863 12.1497C12.913 11.8497 12.963 10.1997 12.838 9.69973C12.573 8.89973 11.913 8.64973 11.413 8.64973H8.61298Z" stroke="#4C4989" stroke-width="1.5" stroke-linecap="round" stroke-linejoin="round"/>
</svg>
