<svg width="70" height="71" viewBox="0 0 70 71" fill="none" xmlns="http://www.w3.org/2000/svg">
<path fill-rule="evenodd" clip-rule="evenodd" d="M31.8213 26.0905C31.8213 24.0568 33.2468 22.4063 35.0032 22.4063C36.7596 22.4063 38.1851 24.0568 38.1851 26.0905V40.8274C38.1851 42.861 36.7596 44.5116 35.0032 44.5116C33.2468 44.5116 31.8213 42.861 31.8213 40.8274V26.0905ZM31.8213 51.8798C31.8213 49.8461 33.2468 48.1956 35.0032 48.1956C36.7596 48.1956 38.1851 49.8461 38.1851 51.8798C38.1851 53.9135 36.7596 55.564 35.0032 55.564C33.2468 55.564 31.8213 53.9135 31.8213 51.8798ZM63.2103 60.5488C62.4816 62.0409 61.0625 62.9325 59.4143 62.9325H10.5912C8.94294 62.9325 7.52381 62.0409 6.79833 60.5488C6.45469 59.8488 6.00286 58.423 6.85243 56.802L31.2608 9.94619C32.7467 7.09461 37.2587 7.09461 38.7446 9.94619L63.1562 56.802C64.0026 58.423 63.5539 59.8488 63.2103 60.5488ZM68.6025 52.996L44.1909 6.13657C42.285 2.48183 38.8485 0.300781 34.9984 0.300781C31.1483 0.300781 27.7119 2.48183 25.8091 6.13657L1.39752 52.996C-0.412977 56.4702 -0.46707 60.6481 1.25116 64.1702C3.09348 67.9539 6.67312 70.3008 10.5869 70.3008H59.41C63.3269 70.3008 66.9033 67.9539 68.7488 64.1702C70.4671 60.6481 70.413 56.4702 68.6025 52.996Z" fill="#4C4089"/>
</svg>
