<svg width="291" height="425" viewBox="0 0 291 425" fill="none" xmlns="http://www.w3.org/2000/svg">
<path d="M47.083 266.749H152.723V354.033H47.083V266.749Z" fill="#4C4989"/>
<path opacity="0.1" d="M47.083 266.749H152.723V354.033H47.083V266.749Z" fill="black"/>
<path d="M5.2204 266.76H47.082V354.044H5.2204V266.76Z" fill="#4C4989"/>
<path opacity="0.2" d="M5.2204 266.76H47.082V354.044H5.2204V266.76Z" fill="black"/>
<path d="M8.11732 348.023C11.2119 341.82 14.2818 335.595 17.3269 329.35L26.4093 310.57L35.3751 291.717C38.3425 285.421 41.2852 279.105 44.2031 272.768C41.0944 278.978 38.021 285.202 34.983 291.441L25.9112 310.22L16.9454 329.074C13.9638 335.369 11.0211 341.686 8.11732 348.023Z" fill="#4C4989"/>
<path d="M8.11732 272.768C11.0282 279.126 13.9709 285.443 16.9454 291.717L25.9112 310.57L34.983 329.35C38.0281 335.588 41.1015 341.813 44.2031 348.023C41.2852 341.664 38.3425 335.348 35.3751 329.074L26.4093 310.22L17.3269 291.452C14.2818 285.199 11.2119 278.971 8.11732 272.768Z" fill="#4C4989"/>
<path d="M92.432 285.613H94.0959H95.357L96.0671 284.162L97.0739 285.613L98.441 282.625L99.7233 285.613H103.411H105.096L105.711 283.621L106.283 285.613H107.375V266.76H92.432V285.613Z" fill="white"/>
<path d="M40.7148 179.475H119.531V266.748H40.7148V179.475Z" fill="#4C4989"/>
<path d="M0.0189819 179.475H40.7148V266.759H0.0189819V179.475Z" fill="#4C4989"/>
<path opacity="0.1" d="M0.0189819 179.475H40.7148V266.759H0.0189819V179.475Z" fill="black"/>
<g opacity="0.1">
<path d="M46.4903 260.738C52.2768 254.528 58.0138 248.304 63.7013 242.065L80.6897 223.243L97.4238 204.389C102.977 198.094 108.474 191.778 113.914 185.44C108.121 191.651 102.384 197.879 96.7031 204.124L79.7465 222.893L63.0124 241.747C57.438 248.07 51.9306 254.401 46.4903 260.738Z" fill="black"/>
<path d="M46.4909 185.483C51.9382 191.842 57.435 198.158 62.9812 204.432L79.7152 223.244L96.6718 242.023C102.324 248.262 108.061 254.486 113.883 260.697C108.436 254.338 102.939 248.021 97.3925 241.748L80.6902 222.936L63.7336 204.167C58.032 197.915 52.2844 191.687 46.4909 185.483Z" fill="black"/>
</g>
<path d="M5.74261 251.985H12.875V262.053H5.74261V251.985Z" fill="white"/>
<path d="M260.138 325.657C260.138 325.657 283.293 372.02 283.303 372.02C285.215 381.588 286.714 390.026 287.094 394.457C287.099 394.482 287.099 394.508 287.094 394.533C287.294 395.56 287.253 396.62 286.974 397.628C286.98 397.653 286.98 397.679 286.974 397.704C284.509 400.202 208.422 417.72 205.522 417.437C202.623 417.155 203.242 408.977 205.653 405.947C208.064 402.917 234.204 383.141 234.204 383.141L211.571 336.702L260.138 325.657Z" fill="#D3766A"/>
<path d="M206.674 417.481C209.53 417.763 284.477 400.235 286.931 397.748C286.935 397.722 286.935 397.697 286.931 397.672C287.216 396.664 287.26 395.604 287.062 394.576C287.071 394.552 287.071 394.525 287.062 394.5C286.693 390.069 285.183 381.631 283.282 372.052L277.744 360.953L229.73 374.116L234.161 383.217C234.161 383.217 209.183 402.95 206.761 406.023C204.339 409.097 203.807 417.209 206.674 417.481Z" fill="#EBEBEB"/>
<path d="M205.631 416.264C208.531 416.482 284.802 397.042 287.235 394.457C288.169 393.49 285.986 382.207 282.956 368.653L282.858 368.229L233.509 380.23L233.737 381.055C233.737 381.055 207.879 401.56 205.501 404.687C203.122 407.815 202.742 416.058 205.631 416.264Z" fill="#263238"/>
<path d="M205.751 413.082C218.522 409.498 270.391 396.205 283.293 393.62C283.402 393.62 283.423 393.674 283.293 393.707C270.706 397.541 218.729 410.41 205.772 413.255C205.523 413.353 205.479 413.158 205.751 413.082Z" fill="white"/>
<path d="M229.643 382.26C234.465 380.023 240.851 379.219 245.629 381.847C245.814 381.945 245.629 382.206 245.499 382.195C240.265 381.867 235.011 382.1 229.827 382.89C229.751 382.895 229.676 382.873 229.614 382.829C229.551 382.786 229.506 382.722 229.484 382.649C229.463 382.575 229.467 382.497 229.495 382.427C229.524 382.356 229.576 382.297 229.643 382.26Z" fill="white"/>
<path d="M226.561 385.388C231.372 383.161 237.758 382.358 242.547 384.975C242.732 385.073 242.547 385.334 242.406 385.334C237.173 385 231.918 385.233 226.735 386.029C226.656 386.036 226.576 386.016 226.511 385.971C226.445 385.925 226.398 385.858 226.377 385.782C226.356 385.705 226.363 385.623 226.397 385.551C226.431 385.479 226.489 385.421 226.561 385.388Z" fill="white"/>
<path d="M223.463 388.528C228.285 386.29 234.671 385.487 239.45 388.104C239.634 388.213 239.45 388.473 239.309 388.462C234.079 388.135 228.828 388.368 223.648 389.158C223.572 389.162 223.497 389.141 223.434 389.097C223.372 389.053 223.326 388.989 223.305 388.916C223.283 388.843 223.287 388.765 223.316 388.694C223.345 388.624 223.397 388.565 223.463 388.528Z" fill="white"/>
<path d="M203.774 413.832C202.547 414.701 204.013 419.208 205.088 419.327C206.163 419.447 289.234 397.878 290.548 397.194C291.862 396.51 290.059 391.579 288.376 391.764C286.692 391.948 203.774 413.832 203.774 413.832Z" fill="#4C4989"/>
<path d="M272.443 379.979C277.265 375.809 283.76 383.302 278.959 387.484C274.159 391.665 267.61 384.16 272.443 379.979Z" fill="white"/>
<path d="M277.602 357.249L221.954 371.28C221.954 371.28 170.085 277.676 171.247 253.881C172.843 221.061 211.376 120.147 211.376 120.147H257.51C257.51 120.147 226.895 229.239 226.471 247.593C226.287 257.193 277.602 357.249 277.602 357.249Z" fill="#455A64"/>
<path d="M219.578 359.986C222.543 358.803 249.031 351.157 268.796 346.954C268.818 346.961 268.837 346.975 268.85 346.994C268.864 347.012 268.871 347.034 268.871 347.057C268.871 347.08 268.864 347.102 268.85 347.121C268.837 347.139 268.818 347.153 268.796 347.16C262.573 349.332 223.303 359.682 219.621 360.193C219.534 360.225 219.447 360.073 219.578 359.986Z" fill="#263238"/>
<path d="M222.65 224.157C226.32 208.757 230.252 193.401 234.379 178.142C238.506 162.883 242.926 147.483 247.78 132.344C248.367 130.487 248.986 128.652 249.583 126.805C249.6 126.746 249.64 126.697 249.694 126.667C249.748 126.638 249.812 126.631 249.871 126.648C249.93 126.665 249.98 126.705 250.009 126.759C250.039 126.813 250.046 126.877 250.028 126.936C245.684 142.021 241.34 157.073 237.224 172.212C233.108 187.351 229.188 202.534 225.495 217.825C224.572 221.605 223.67 225.373 222.791 229.163C221.768 233.048 220.978 236.99 220.423 240.969C219.967 244.77 220.228 248.623 221.194 252.328C222.242 255.969 223.612 259.509 225.289 262.906C231.942 277.35 238.592 291.798 245.239 306.25C251.885 320.737 252.961 324.039 259.357 338.646C260.15 340.459 260.943 342.273 261.703 344.076C261.703 344.195 261.584 344.304 261.519 344.174C254.242 329.86 253.124 326.417 246.314 311.843C239.505 297.268 232.739 282.52 225.984 267.848C222.943 261.223 219.37 254.468 218.914 247.061C218.458 239.329 220.89 231.574 222.65 224.157Z" fill="#263238"/>
<path d="M220.129 343.989L218.348 395.032C218.055 404.806 217.631 413.353 216.99 417.751C216.996 417.777 216.996 417.802 216.99 417.828C216.954 418.871 216.679 419.893 216.187 420.814L216.121 420.879C213.157 422.758 135.082 422.715 132.356 421.792C129.63 420.868 132.041 413.049 135.071 410.627C138.101 408.205 168.011 394.858 168.011 394.858L170.28 343.869L220.129 343.989Z" fill="#D3766A"/>
<path d="M218.719 384.585C218.719 384.585 218.35 395.032 218.35 395.065C218.056 404.839 217.633 413.386 216.992 417.784C216.997 417.81 216.997 417.835 216.992 417.86C216.844 418.884 216.574 419.887 216.188 420.847L216.123 420.912C213.158 422.791 135.084 422.748 132.358 421.824C129.632 420.901 132.043 413.082 135.073 410.66C138.103 408.238 168.012 394.891 168.012 394.891L168.24 384.259L218.719 384.585Z" fill="#EBEBEB"/>
<path d="M132.314 421.737C135.073 422.617 213.766 421.4 216.742 419.445C217.828 418.718 218.371 407.249 218.566 393.381V392.946L167.784 393.164V394.032C167.784 394.032 137.864 407.966 134.834 410.453C131.804 412.94 129.545 420.89 132.314 421.737Z" fill="#263238"/>
<path d="M133.149 418.718C146.409 418.186 199.95 417.296 213.102 417.784C213.211 417.784 213.211 417.86 213.102 417.86C199.972 418.675 146.42 419.142 133.149 418.946C132.877 418.881 132.867 418.718 133.149 418.718Z" fill="white"/>
<path d="M163.55 394.229C168.752 393.143 175.159 393.87 179.199 397.487C179.362 397.628 179.199 397.845 178.982 397.802C173.968 396.272 168.806 395.278 163.582 394.837C163.519 394.817 163.464 394.778 163.424 394.726C163.383 394.673 163.36 394.61 163.356 394.544C163.353 394.478 163.369 394.413 163.404 394.356C163.439 394.3 163.489 394.256 163.55 394.229Z" fill="white"/>
<path d="M159.811 396.553C165.024 395.467 171.421 396.205 175.461 399.865C175.624 400.007 175.461 400.224 175.255 400.169C170.238 398.637 165.071 397.647 159.844 397.215C159.765 397.206 159.693 397.168 159.639 397.11C159.585 397.052 159.553 396.977 159.549 396.898C159.545 396.819 159.569 396.741 159.617 396.678C159.665 396.615 159.734 396.57 159.811 396.553Z" fill="white"/>
<path d="M156.086 398.888C161.288 397.802 167.685 398.53 171.735 402.146C171.887 402.287 171.735 402.504 171.518 402.461C166.504 400.932 161.342 399.938 156.118 399.496C156.055 399.476 156 399.437 155.96 399.385C155.919 399.333 155.896 399.269 155.892 399.203C155.889 399.137 155.905 399.072 155.94 399.016C155.975 398.959 156.025 398.915 156.086 398.888Z" fill="white"/>
<path d="M131.066 418.936C129.665 419.501 130.046 424.225 131.066 424.584C132.087 424.942 217.948 423.237 219.349 422.889C220.75 422.542 220.186 417.318 218.481 417.068C216.776 416.819 131.066 418.936 131.066 418.936Z" fill="#4C4989"/>
<path d="M205.709 401.94C211.367 398.997 215.95 407.793 210.281 410.737C204.612 413.68 200.04 404.883 205.709 401.94Z" fill="white"/>
<path d="M211.953 120.061C212.16 121.006 223.661 166.478 225.094 167.325C226.723 168.291 183.304 226.709 178.156 255.391C174.898 273.734 167.296 380.653 167.296 380.653H222.662C222.662 380.653 228.092 289.85 229.894 259.93C230.6 248.321 274.15 194.649 278.288 158.865C279.591 147.592 271.489 120.018 271.489 120.018L211.953 120.061Z" fill="#455A64"/>
<path d="M224.061 337.451C224.713 322.41 225.31 307.336 226.407 292.316C227.026 283.802 228.242 275.559 229.089 267.077C229.089 266.632 229.491 266.523 229.48 266.979C229.089 282.086 227.84 297.029 227.037 312.125C226.233 327.221 225.462 330.74 224.604 345.792C224.126 354.306 223.703 362.821 223.04 371.324C223.033 371.346 223.019 371.365 223.001 371.379C222.982 371.392 222.96 371.399 222.937 371.399C222.914 371.399 222.892 371.392 222.873 371.379C222.855 371.365 222.841 371.346 222.834 371.324C222.801 356.207 223.398 352.547 224.061 337.451Z" fill="#263238"/>
<path d="M178.102 256.108C178.576 252.135 179.345 248.204 180.404 244.346C181.545 240.607 183.047 236.988 184.89 233.54C188.658 226.307 192.948 219.313 197.086 212.287C201.224 205.26 205.535 198.081 209.901 191.066C212.355 187.127 214.821 183.192 217.297 179.261C219.816 175.297 222.477 171.409 225.073 167.499C225.093 167.466 225.125 167.442 225.163 167.433C225.201 167.424 225.24 167.43 225.274 167.45C225.307 167.47 225.33 167.503 225.34 167.54C225.349 167.578 225.343 167.618 225.322 167.651C221.087 174.754 216.895 181.867 212.659 188.97C208.424 196.072 204.254 203.197 200.083 210.321C195.913 217.445 191.862 224.352 187.931 231.477C185.995 234.859 184.328 238.389 182.946 242.033C181.66 245.809 180.726 249.695 180.155 253.642C178.678 262.841 177.472 272.105 175.626 281.217C175.619 281.238 175.605 281.257 175.586 281.271C175.568 281.284 175.546 281.291 175.523 281.291C175.5 281.291 175.478 281.284 175.459 281.271C175.44 281.257 175.427 281.238 175.42 281.217C175.995 272.833 176.994 264.438 178.102 256.108Z" fill="#263238"/>
<path d="M172.17 371.162C175.33 370.749 199.451 369.913 219.629 370.781C219.759 370.781 219.748 370.977 219.629 370.988C213.058 371.563 175.906 371.824 172.202 371.39C172.104 371.379 172.061 371.183 172.17 371.162Z" fill="#263238"/>
<path d="M217.87 164.22C223.511 166.275 228.962 168.819 234.161 171.822C234.205 171.842 234.24 171.879 234.258 171.925C234.275 171.971 234.273 172.022 234.253 172.066C234.233 172.111 234.196 172.146 234.15 172.163C234.104 172.18 234.053 172.179 234.009 172.158C228.514 169.791 222.899 167.532 217.534 164.871C217.447 164.827 217.382 164.749 217.353 164.657C217.323 164.564 217.332 164.464 217.376 164.377C217.421 164.291 217.498 164.226 217.591 164.196C217.683 164.166 217.784 164.175 217.87 164.22Z" fill="#263238"/>
<path d="M216.208 126.578C216.208 126.393 216.556 126.35 216.556 126.578C216.555 132.715 216.863 138.848 217.479 144.954C217.74 147.788 220.02 163.416 224.929 162.33C225.755 162.135 226.167 161.331 226.298 160.082C226.284 158.461 226.065 156.848 225.646 155.282C225.103 152.024 224.668 148.766 224.386 145.41C223.81 139.244 223.876 133.035 224.582 126.882C224.591 126.847 224.611 126.817 224.64 126.795C224.668 126.773 224.703 126.761 224.739 126.761C224.775 126.761 224.81 126.773 224.838 126.795C224.867 126.817 224.887 126.847 224.897 126.882C224.754 135.429 225.255 143.975 226.395 152.447C227.014 156.52 229.067 162.656 224.799 163.307C220.531 163.959 217.653 153.674 217.131 150.862C215.773 142.841 215.463 134.678 216.208 126.578Z" fill="#263238"/>
<path d="M224.801 162.666C225.236 163.726 225.599 164.815 225.887 165.924C226.2 166.776 226.354 167.678 226.343 168.585C226.338 168.622 226.322 168.657 226.296 168.684C226.271 168.712 226.238 168.731 226.201 168.739C226.165 168.747 226.126 168.744 226.092 168.73C226.057 168.716 226.027 168.692 226.007 168.661C225.493 167.861 225.109 166.985 224.866 166.065C224.486 165.055 224.095 164.067 223.78 163.046C223.73 162.911 223.735 162.761 223.795 162.63C223.855 162.498 223.965 162.396 224.101 162.346C224.236 162.295 224.386 162.301 224.517 162.361C224.649 162.421 224.751 162.531 224.801 162.666Z" fill="#263238"/>
<path d="M222.485 274.527C223.006 266.794 222.974 258.638 226.264 251.471C228.012 247.978 230.024 244.623 232.281 241.436C234.526 238.004 236.741 234.554 238.928 231.086C247.616 217.217 256 203.066 263.635 188.568C267.316 181.585 270.705 174.374 272.551 166.663C274.351 158.549 274.693 150.179 273.561 141.945C273.3 139.892 273.018 137.851 272.681 135.809C272.68 135.781 272.689 135.754 272.705 135.732C272.722 135.71 272.746 135.694 272.773 135.688C272.8 135.681 272.828 135.685 272.853 135.697C272.878 135.709 272.898 135.729 272.909 135.754C274.696 143.585 275.307 151.637 274.723 159.647C273.887 167.305 271.73 174.761 268.348 181.683C264.981 188.97 260.974 195.985 257.021 202.969C252.945 210.209 248.749 217.344 244.434 224.374C240.09 231.39 235.615 238.264 231.13 245.172C228.842 248.429 227.059 252.014 225.841 255.804C224.853 259.759 224.286 263.807 224.147 267.88C223.061 284.974 218.717 341.806 217.174 358.813C216.99 360.985 216.794 363.157 216.588 365.33C216.594 365.352 216.595 365.376 216.591 365.399C216.586 365.422 216.576 365.443 216.562 365.462C216.548 365.481 216.53 365.496 216.509 365.506C216.488 365.516 216.465 365.522 216.441 365.522C216.418 365.522 216.395 365.516 216.374 365.506C216.353 365.496 216.335 365.481 216.32 365.462C216.306 365.443 216.297 365.422 216.292 365.399C216.288 365.376 216.289 365.352 216.295 365.33C216.946 348.257 221.366 291.567 222.485 274.527Z" fill="#263238"/>
<path d="M249.062 135.048C249.062 134.928 249.258 134.972 249.258 135.048C249.42 139.794 249.258 144.703 251.115 149.166C252.787 153.282 256.154 156.171 259.922 158.332C262.114 159.562 264.373 160.668 266.688 161.645C266.851 161.721 266.786 161.981 266.601 161.927C262.257 160.537 257.772 159.027 254.134 156.117C250.246 152.989 248.541 148.46 248.356 143.573C248.29 140.714 248.526 137.857 249.062 135.048Z" fill="#263238"/>
<path d="M224.963 57.6908C218.751 76.7614 201.972 109.244 195.977 113.165C190.666 116.629 165.677 112.763 154.708 110.124C150.625 109.136 159.812 78.0104 164.167 79.1507C169.391 80.5191 184.954 84.027 186.083 83.1581C187.213 82.2893 202.906 62.9581 214.027 51.5765C224.149 41.2701 227.309 50.4796 224.963 57.6908Z" fill="#D3766A"/>
<path d="M157.109 110.364C155.013 110.103 137.278 109.278 129.144 104.858C124.8 102.501 113.711 94.7034 114.819 91.9014C115.829 89.3493 119.391 90.7394 119.391 90.7394C119.391 90.7394 114.493 87.1881 115.927 83.6476C117.36 80.1072 123.279 82.7679 123.279 82.7679C123.279 82.7679 118.511 78.7496 120.195 75.3287C121.878 71.9077 127.373 75.5676 127.373 75.5676C127.373 75.5676 122.845 72.1032 125.419 69.8659C128.525 67.1726 136.159 74.5141 141.318 76.2301C142.491 76.621 165.602 82.4639 165.602 82.4639L157.109 110.364Z" fill="#D3766A"/>
<path d="M127.569 75.4691C133.195 80.8449 136.594 82.2242 144.109 83.7446C144.25 83.7446 144.239 84.0053 144.109 83.9835C136.616 83.169 132.109 82.0504 127.319 75.7297C127.058 75.4148 127.308 75.2085 127.569 75.4691Z" fill="#263238"/>
<path d="M123.462 82.6366C129.794 87.7192 133.465 89.2397 141.219 91.4117C141.328 91.4117 141.284 91.6398 141.165 91.6181C133.389 90.1194 128.914 88.903 123.256 82.995C122.996 82.7344 123.169 82.4086 123.462 82.6366Z" fill="#263238"/>
<path d="M119.769 90.8253C126.285 95.2998 130.206 97.1569 138.003 98.2972C138.041 98.2972 138.077 98.3121 138.103 98.3386C138.13 98.365 138.145 98.4009 138.145 98.4384C138.145 98.4758 138.13 98.5117 138.103 98.5382C138.077 98.5647 138.041 98.5796 138.003 98.5796C129.934 98.1886 124.971 95.9188 119.682 91.0425C119.291 90.7385 119.367 90.5538 119.769 90.8253Z" fill="#263238"/>
<path d="M171.66 83.4616C171.66 83.4616 165.198 76.1527 161.658 73.5679C158.117 70.9832 141.349 66.2047 140.111 69.7668C138.515 74.3716 147.648 79.0306 152.416 80.7248C152.416 80.7248 148.712 91.3679 154.588 96.1247C160.463 100.881 171.66 83.4616 171.66 83.4616Z" fill="#D3766A"/>
<path d="M140.077 71.1904C141.652 76.4359 148.059 78.2605 152.566 80.2479C152.633 80.2767 152.692 80.3206 152.739 80.3762C152.785 80.4318 152.818 80.4975 152.835 80.5682C152.852 80.6388 152.852 80.7124 152.836 80.7831C152.819 80.8538 152.786 80.9197 152.74 80.9755C151.48 85.5368 151.046 92.3354 154.239 96.1799C154.326 96.2885 154.184 96.4405 154.076 96.3428C150.09 92.6938 149.981 85.9712 151.676 81.0624C147.017 79.0967 140.674 76.979 140.033 71.2122C140.023 71.1904 140.066 71.1904 140.077 71.1904Z" fill="#263238"/>
<path d="M157.12 115.717L165.308 78.4231L185.574 82.1048C193.567 72.9496 209.542 54.65 215.982 49.1547C223.584 42.7037 228.558 47.5474 225.756 57.3217C219.425 79.6612 200.908 112.459 196.065 115.554C189.038 120.061 157.12 115.717 157.12 115.717Z" fill="#4C4989"/>
<path opacity="0.1" d="M186.049 93.4537C185.046 93.6718 184.024 93.7918 182.997 93.8121C180.825 94.1053 179.869 97.3091 181.846 98.5254C182.884 99.1648 184.057 99.5519 185.272 99.6556C186.487 99.7593 187.709 99.5768 188.84 99.1227C191.012 98.2757 192.847 96.1688 192.38 93.6926C192.3 93.231 192.101 92.7982 191.803 92.4363C191.505 92.0744 191.119 91.7957 190.682 91.6273C190.244 91.4589 189.771 91.4066 189.307 91.4754C188.844 91.5443 188.406 91.7319 188.036 92.0201C187.434 92.5769 186.767 93.0583 186.049 93.4537ZM191.653 84.5809C192.435 88.2734 186.722 91.4445 183.801 89.4788C183.565 89.3005 183.373 89.0714 183.238 88.8085C183.104 88.5456 183.03 88.2557 183.022 87.9604C183.015 87.6651 183.074 87.3719 183.196 87.1027C183.318 86.8335 183.498 86.5952 183.725 86.4054C184.583 85.7103 185.299 85.6017 186.06 84.9718C186.325 84.7643 186.56 84.5192 186.755 84.2442C187.186 83.6504 187.737 83.1545 188.373 82.7889C188.704 82.6475 189.062 82.5831 189.422 82.6004C189.781 82.6177 190.132 82.7163 190.448 82.8889C190.764 83.0614 191.036 83.3033 191.245 83.5964C191.453 83.8894 191.593 84.2261 191.653 84.5809ZM200.765 84.7763C201.937 86.3076 201.058 88.61 200.026 90.0001C199.562 90.6925 198.922 91.2492 198.172 91.6136C197.422 91.978 196.589 92.137 195.758 92.0744C195.455 92.0318 195.171 91.9025 194.94 91.702C194.709 91.5015 194.541 91.2385 194.456 90.9446C194.371 90.6507 194.373 90.3386 194.461 90.0457C194.549 89.7529 194.721 89.4919 194.954 89.2942C195.607 88.7975 196.129 88.1488 196.475 87.4045C196.985 86.2533 197.322 84.7655 198.647 84.2659C199.009 84.1171 199.408 84.0864 199.788 84.178C200.169 84.2697 200.51 84.4791 200.765 84.7763ZM176.709 108.93C178.24 112.025 173.581 115.543 170.758 114.935C169.813 114.729 168.9 113.491 169.737 112.6C170.41 111.884 171.214 111.319 171.844 110.559C172.615 109.635 173.038 108.452 174.244 107.985C174.697 107.795 175.207 107.787 175.666 107.963C176.125 108.139 176.498 108.485 176.709 108.93ZM220.454 70.973C220.721 70.4645 221.091 70.017 221.54 69.6589C220.932 71.2155 220.291 72.7758 219.618 74.3396C219.582 73.1619 219.871 71.9969 220.454 70.973ZM214.405 67.7149C214.618 65.0322 215.666 62.4836 217.402 60.4276C218.706 58.7443 220.965 56.0835 223.354 56.6591C223.608 56.7385 223.829 56.8975 223.986 57.1127C224.142 57.3279 224.225 57.5877 224.223 57.8538C224.375 59.6891 222.268 61.6549 221.356 63.121C220.27 64.9672 219.412 67.009 218.239 68.8443C217.993 69.2217 217.633 69.5096 217.211 69.6651C216.788 69.8205 216.327 69.8352 215.896 69.7069C215.464 69.5786 215.086 69.3142 214.817 68.9532C214.549 68.5922 214.404 68.154 214.405 67.704V67.7149ZM215.111 79.3897C214.687 79.3677 214.28 79.2103 213.952 78.9406C213.624 78.6709 213.39 78.303 213.286 77.8909C213.118 77.0478 213.174 76.1751 213.449 75.3605C213.612 74.5848 213.988 73.8701 214.535 73.2971C214.731 73.1157 214.971 72.9883 215.231 72.9274C215.491 72.8666 215.763 72.8743 216.019 72.9498C216.275 73.0253 216.507 73.1661 216.693 73.3584C216.878 73.5506 217.01 73.7877 217.077 74.0464C217.164 74.6806 217.164 75.3236 217.077 75.9578C217.077 76.2293 217.077 76.5008 217.077 76.7832C217.082 77.1924 217.038 77.6008 216.946 77.9995C216.829 78.3963 216.588 78.7448 216.257 78.9933C215.926 79.2417 215.524 79.3769 215.111 79.3788V79.3897Z" fill="#030402"/>
<path d="M164.211 112.458C165.145 110.286 167.469 100.642 167.98 98.2421C168.49 95.842 170.38 86.1329 170.934 83.6677C170.934 83.5265 170.782 83.4505 170.749 83.5808C170.163 86.0135 167.545 95.5922 166.97 97.9815C166.394 100.371 164.233 110.004 164.081 112.426C164.079 112.434 164.078 112.443 164.079 112.452C164.081 112.461 164.084 112.469 164.088 112.476C164.097 112.492 164.112 112.503 164.13 112.507C164.147 112.511 164.165 112.509 164.18 112.5C164.196 112.49 164.207 112.475 164.211 112.458Z" fill="#263238"/>
<path opacity="0.1" d="M183.031 117.586C188.732 117.586 193.739 117.043 196.063 115.555C200.939 112.405 219.456 79.7158 225.831 57.3328C227.438 51.7289 226.472 47.7324 223.93 46.5703L183.031 117.586Z" fill="black"/>
<path d="M274.93 125.177C274.789 125.383 207.021 134.072 206.294 133.442C205.91 131.555 205.638 129.648 205.479 127.729C205.479 127.729 211.691 53.9446 214.906 49.6114C217.719 45.832 226.255 43.0952 232.065 45.5605C244.261 50.73 273.464 116.652 273.149 119.41C273.171 119.378 275.104 124.916 274.93 125.177Z" fill="#4C4989"/>
<path opacity="0.1" d="M250.494 116.195C249.449 116.703 248.358 117.11 247.236 117.412C244.977 118.313 244.771 122.081 247.236 122.842C248.547 123.257 249.936 123.361 251.294 123.144C252.652 122.927 253.94 122.396 255.056 121.593C257.228 120.072 258.629 117.249 257.456 114.729C257.241 114.25 256.906 113.834 256.483 113.521C256.061 113.209 255.565 113.01 255.043 112.945C254.522 112.879 253.992 112.949 253.506 113.147C253.019 113.346 252.592 113.666 252.265 114.077C251.656 114.783 251.287 115.717 250.494 116.195ZM254.209 104.977C256.066 108.81 250.69 113.817 246.965 112.459C246.653 112.335 246.374 112.139 246.15 111.888C245.927 111.637 245.764 111.338 245.676 111.014C245.587 110.69 245.575 110.349 245.641 110.02C245.706 109.69 245.847 109.38 246.053 109.114C246.791 108.126 247.551 107.811 248.225 106.942C248.457 106.642 248.644 106.309 248.778 105.954C249.1 105.196 249.568 104.509 250.158 103.934C251.45 102.685 253.524 103.565 254.209 104.977ZM260.486 100.893C262.517 101.653 263.038 104.39 262.886 106.323C262.855 107.262 262.575 108.176 262.075 108.972C261.575 109.768 260.873 110.416 260.041 110.852C259.726 110.992 259.378 111.039 259.038 110.985C258.698 110.932 258.381 110.781 258.125 110.552C257.869 110.322 257.685 110.023 257.595 109.691C257.505 109.359 257.513 109.007 257.619 108.68C257.964 107.812 258.083 106.87 257.966 105.943C257.782 104.553 257.228 102.924 258.151 101.675C258.408 101.315 258.772 101.045 259.191 100.905C259.611 100.765 260.064 100.76 260.486 100.893ZM238.222 113.817C238.736 113.773 239.248 113.927 239.652 114.248C240.056 114.569 240.321 115.033 240.394 115.544C240.45 116.092 240.312 116.643 240.005 117.101C239.698 117.559 239.24 117.896 238.711 118.052C237.97 118.297 237.171 118.297 236.43 118.052C236.051 117.902 235.739 117.621 235.551 117.26C235.333 116.91 235.244 116.495 235.301 116.087C235.361 115.706 235.536 115.352 235.801 115.073C236.067 114.794 236.411 114.602 236.789 114.523C236.857 114.433 236.937 114.352 237.028 114.284C237.372 114.016 237.787 113.854 238.222 113.817ZM254.871 87.611C256.696 89.479 255.957 93.7253 253.872 95.1589C253.603 95.363 253.286 95.4933 252.952 95.5368C252.617 95.5804 252.277 95.5358 251.966 95.4073C251.654 95.2789 251.381 95.0711 251.174 94.8046C250.968 94.5381 250.834 94.2222 250.788 93.8882C250.756 93.458 250.756 93.0261 250.788 92.5959C250.788 92.1289 250.853 91.8356 250.788 91.5098C250.625 90.5813 250.592 89.6346 250.69 88.697C250.774 88.2523 250.983 87.8407 251.292 87.5102C251.602 87.1797 251.998 86.9438 252.437 86.83C252.875 86.7162 253.336 86.7292 253.767 86.8675C254.198 87.0057 254.581 87.2636 254.871 87.611ZM266.654 114.631C269.163 117.607 265.025 122.711 261.778 122.809C260.692 122.809 259.356 121.723 260.03 120.528C260.573 119.573 261.3 118.726 261.778 117.737C262.365 116.521 262.506 115.098 263.7 114.273C264.146 113.945 264.7 113.8 265.248 113.867C265.797 113.933 266.3 114.207 266.654 114.631ZM206.738 113.686C207.147 113.748 207.529 113.929 207.834 114.208C208.14 114.486 208.356 114.849 208.454 115.25C208.802 116.456 208.845 117.531 209.747 118.508C210.722 119.276 211.598 120.162 212.353 121.147C212.479 121.393 212.539 121.668 212.527 121.944C212.515 122.22 212.432 122.488 212.285 122.723C212.139 122.957 211.934 123.149 211.691 123.28C211.447 123.412 211.174 123.478 210.898 123.472C209.001 123.239 207.265 122.291 206.043 120.822C206.261 118.758 206.478 116.336 206.728 113.643L206.738 113.686ZM212.169 104.727C212.777 106.204 212.668 107.876 213.179 109.418C213.626 110.832 214.16 112.218 214.775 113.567C215.231 114.544 214.319 116.087 213.135 115.565C211.21 114.826 209.635 113.387 208.726 111.536C207.9 109.831 206.988 106.964 207.781 105.15C208.574 103.337 211.267 102.544 212.19 104.683L212.169 104.727ZM218.359 119.529C219.261 120.695 220.416 121.642 221.736 122.299C222.051 122.396 222.341 122.56 222.588 122.778C222.835 122.996 223.032 123.265 223.167 123.565C223.302 123.866 223.372 124.191 223.372 124.521C223.371 124.85 223.301 125.176 223.165 125.476C223.029 125.776 222.831 126.044 222.584 126.262C222.337 126.48 222.047 126.642 221.732 126.739C221.417 126.836 221.085 126.865 220.758 126.824C220.431 126.783 220.117 126.673 219.836 126.502C218.712 126.02 217.708 125.298 216.893 124.386C216.079 123.474 215.475 122.394 215.123 121.224C214.612 119.345 217.153 118.117 218.381 119.486L218.359 119.529ZM228.285 66.314C227.678 66.4424 227.045 66.3309 226.519 66.003C225.993 65.675 225.614 65.1559 225.461 64.5547C224.853 62.2197 226.938 59.8196 228.589 58.3643C230.24 56.909 232.564 55.5841 234.877 56.3334C235.185 56.4332 235.463 56.6101 235.683 56.8471C235.904 57.0842 236.06 57.3736 236.137 57.688C236.214 58.0024 236.21 58.3313 236.124 58.6435C236.039 58.9557 235.875 59.2409 235.648 59.4721C234.638 60.7318 233.237 61.6441 232.162 62.8822C231.087 64.1203 230.197 65.9556 228.307 66.2706L228.285 66.314ZM219.955 75.5344C219.043 74.2203 219.749 72.2763 220.401 71.0274C220.748 70.3384 221.287 69.765 221.954 69.3766C222.402 69.0896 222.946 68.9913 223.467 69.1032C223.987 69.215 224.443 69.528 224.734 69.9739C225.03 70.5915 225.077 71.2994 224.864 71.9505C224.773 72.2911 224.65 72.6221 224.495 72.9388V73.0365V73.1234C224.301 74.1605 223.861 75.1361 223.213 75.9688C222.989 76.1946 222.716 76.3655 222.414 76.4681C222.113 76.5707 221.792 76.6022 221.477 76.5601C221.161 76.5181 220.86 76.4036 220.596 76.2256C220.332 76.0477 220.113 75.8111 219.955 75.5344ZM214.351 67.7584C214.564 65.0757 215.612 62.5271 217.349 60.4712C218.652 58.7879 220.911 56.1271 223.3 56.7027C223.554 56.782 223.776 56.9411 223.932 57.1562C224.089 57.3714 224.172 57.6313 224.169 57.8973C224.321 59.7327 222.214 61.6984 221.302 63.1645C220.216 65.0108 219.358 67.0525 218.185 68.8879C217.929 69.2444 217.568 69.5112 217.152 69.6503C216.735 69.7894 216.286 69.7936 215.867 69.6625C215.449 69.5314 215.082 69.2715 214.82 68.9199C214.557 68.5683 214.412 68.1428 214.406 67.7041L214.351 67.7584ZM222.551 86.3512C222.154 86.438 221.743 86.438 221.345 86.3512C220.743 86.1659 220.235 85.7581 219.923 85.2109C219.631 84.6283 219.486 83.9834 219.499 83.332C219.519 82.7149 219.686 82.1115 219.988 81.5727L220.346 81.1274L220.824 80.7799C221.123 80.6257 221.453 80.5409 221.789 80.5318C222.125 80.5227 222.459 80.5895 222.766 80.7272C223.073 80.865 223.345 81.0702 223.561 81.3275C223.778 81.5848 223.934 81.8876 224.017 82.2134C224.198 82.846 224.325 83.4926 224.397 84.1466L224.299 84.7439C224.223 85.0436 224.074 85.3197 223.865 85.5475C223.537 85.9267 223.095 86.1896 222.605 86.2969L222.551 86.3512ZM215.057 79.4332C214.633 79.4113 214.227 79.2539 213.898 78.9842C213.57 78.7144 213.337 78.3466 213.233 77.9345C213.064 77.0914 213.12 76.2186 213.396 75.4041C213.558 74.6284 213.934 73.9136 214.482 73.3406C214.678 73.1592 214.918 73.0318 215.178 72.971C215.438 72.9101 215.709 72.9178 215.965 72.9934C216.221 73.0689 216.454 73.2097 216.639 73.4019C216.824 73.5941 216.957 73.8312 217.023 74.09C217.11 74.7241 217.11 75.3672 217.023 76.0014C217.023 76.2729 217.023 76.5444 217.023 76.8268C217.029 77.236 216.985 77.6444 216.893 78.0431C216.771 78.423 216.534 78.7558 216.215 78.9951C215.896 79.2345 215.51 79.3686 215.112 79.3789L215.057 79.4332Z" fill="#030402"/>
<path d="M218.871 61.1763C223.009 60.7962 228.308 51.956 229.318 46.3412C229.384 45.9502 227.733 42.6813 225.919 38.6196C224.833 36.1543 223.66 33.374 222.791 30.7676L207.761 40.2269C209.789 43.1775 211.448 46.3651 212.702 49.7187C212.815 50.0728 212.895 50.4363 212.941 50.8048C212.937 50.8662 212.937 50.9279 212.941 50.9894C213.321 53.1614 214.863 61.5456 218.871 61.1763Z" fill="#D3766A"/>
<path d="M212.939 50.8273C212.935 50.8888 212.935 50.9505 212.939 51.0119C213.518 50.8986 214.088 50.7425 214.644 50.545C224.049 47.1566 222.387 34.8193 221.725 31.4092L217.978 33.7767L207.715 40.2929C209.742 43.2423 211.398 46.4303 212.646 49.7847C212.775 50.1226 212.873 50.4716 212.939 50.8273Z" fill="#263238"/>
<path d="M221.214 13.3588C224.32 18.9519 224.863 36.9148 221.421 41.6824C216.447 48.5895 206.455 51.2829 200.124 44.9405C193.988 38.7284 193.705 15.3028 197.702 10.785C203.61 4.07332 216.631 5.09418 221.214 13.3588Z" fill="#D3766A"/>
<path d="M206.794 27.8789C206.794 27.8789 206.892 27.8789 206.892 27.9875C206.892 29.2256 207.109 30.6374 208.238 31.0067V31.0827C206.859 30.9306 206.598 29.0518 206.794 27.8789Z" fill="#263238"/>
<path d="M207.846 26.5545C209.834 26.3373 210.127 30.3121 208.291 30.5185C206.456 30.7248 206.184 26.7391 207.846 26.5545Z" fill="#263238"/>
<path d="M199.671 28.3037C199.671 28.3037 199.585 28.3689 199.585 28.4232C199.726 29.6504 199.671 31.0839 198.596 31.5726C198.596 31.5726 198.596 31.6595 198.596 31.6487C199.954 31.3446 199.997 29.444 199.671 28.3037Z" fill="#263238"/>
<path d="M198.465 27.1074C196.478 27.1074 196.641 31.0932 198.465 31.0932C200.29 31.0932 200.138 27.0966 198.465 27.1074Z" fill="#263238"/>
<path d="M206.241 25.7503C206.795 25.8698 207.327 25.8807 207.87 25.9458C208.433 26.093 209.028 26.051 209.564 25.8264C209.721 25.7234 209.838 25.5718 209.899 25.395C209.96 25.2182 209.961 25.0262 209.901 24.8489C209.723 24.525 209.462 24.254 209.146 24.0632C208.829 23.8725 208.468 23.7689 208.098 23.7629C207.348 23.6187 206.571 23.7663 205.926 24.1756C205.792 24.2765 205.689 24.4132 205.629 24.5701C205.569 24.7269 205.555 24.8975 205.588 25.0621C205.621 25.2267 205.7 25.3787 205.815 25.5004C205.931 25.6222 206.079 25.7088 206.241 25.7503Z" fill="#263238"/>
<path d="M196.681 23.405C197.208 23.257 197.727 23.0794 198.234 22.8728C198.805 22.7651 199.324 22.471 199.711 22.0366C199.807 21.8774 199.848 21.6906 199.826 21.5056C199.805 21.3207 199.722 21.1483 199.591 21.0157C199.295 20.789 198.942 20.647 198.571 20.6049C198.2 20.5629 197.824 20.6223 197.484 20.7768C196.751 20.9776 196.117 21.4415 195.703 22.08C195.617 22.2315 195.577 22.4047 195.588 22.5785C195.598 22.7524 195.659 22.9195 195.762 23.0597C195.865 23.1998 196.007 23.307 196.17 23.3683C196.333 23.4296 196.511 23.4423 196.681 23.405Z" fill="#263238"/>
<path d="M207.694 37.6755C206.095 37.2926 204.428 37.2926 202.829 37.6755C202.688 37.6755 202.547 37.3931 202.514 37.2628L202.427 34.6563C202.09 34.8518 200.396 35.7423 200.396 35.2645C200.22 31.0282 200.478 26.785 201.167 22.6014C201.175 22.5771 201.19 22.5559 201.211 22.5408C201.231 22.5257 201.256 22.5176 201.281 22.5176C201.307 22.5176 201.332 22.5257 201.352 22.5408C201.373 22.5559 201.388 22.5771 201.395 22.6014C201.569 26.522 201.07 30.4317 201.189 34.374C201.788 34.0418 202.432 33.7968 203.1 33.6463C203.242 33.6463 203.1 36.4157 203.1 36.8284C204.595 36.3134 206.232 36.4031 207.662 37.0782C208.227 37.4365 208.455 37.9144 207.694 37.6755Z" fill="#263238"/>
<path d="M210.907 40.2609C210.636 40.565 210.364 40.9777 209.93 41.0428C209.473 41.0646 209.018 40.9868 208.594 40.8148C208.594 40.8148 208.518 40.8147 208.594 40.8799C208.781 41.1104 209.028 41.2851 209.308 41.3847C209.587 41.4843 209.889 41.505 210.18 41.4446C210.417 41.3687 210.627 41.2258 210.785 41.0332C210.943 40.8405 211.042 40.6062 211.07 40.3586C211.049 40.2392 210.951 40.2174 210.907 40.2609Z" fill="#263238"/>
<path opacity="0.2" d="M215.969 7.65723C216.132 10.4483 216.794 19.1039 218.141 20.8633C219.488 22.6227 222.333 26.717 223.777 27.3795C223.582 21.6127 222.691 16.1282 221.203 13.2611C219.984 10.964 218.178 9.03054 215.969 7.65723Z" fill="#263238"/>
<path d="M200.495 16.1175C201.254 16.8905 202.199 17.456 203.239 17.7602C204.279 18.0644 205.379 18.0971 206.435 17.8552C207.516 17.6147 208.517 17.0995 209.341 16.3595C210.164 15.6195 210.783 14.6796 211.138 13.6305C211.138 13.5654 211.257 13.6305 211.236 13.6305C210.96 14.7631 210.378 15.7984 209.555 16.6237C208.732 17.4489 207.698 18.0326 206.566 18.3113C205.436 18.527 204.269 18.4397 203.183 18.0581C202.098 17.6766 201.133 17.0146 200.386 16.1392C200.321 16.1501 200.408 16.0524 200.495 16.1175Z" fill="#263238"/>
<path d="M205.946 0.0227337C207.615 -0.0901652 209.286 0.218714 210.804 0.920931C212.322 1.62315 213.639 2.69612 214.634 4.04103C215.482 5.40978 215.842 7.02496 215.655 8.62406H215.514C215.493 7.22089 215.094 5.84939 214.358 4.65457C213.622 3.45975 212.577 2.48604 211.333 1.8364C209.973 1.07525 208.456 0.638999 206.9 0.561753C205.343 0.484507 203.79 0.768369 202.362 1.39113C200.957 1.97035 199.803 3.02843 199.104 4.3777C199.039 4.51888 198.757 4.45372 198.811 4.31253C199.701 1.945 202.579 0.185638 205.946 0.0227337Z" fill="#263238"/>
<path d="M185.205 9.49292C185.677 7.65431 186.785 6.04227 188.333 4.94247C190.505 3.38945 193.046 3.41117 195.587 3.49805C195.663 3.49805 195.652 3.60666 195.587 3.5958C193.426 3.37021 191.247 3.77375 189.31 4.75785C187.734 5.70386 186.533 7.16564 185.911 8.89561C185.319 10.67 185.387 12.5983 186.104 14.3262C186.82 16.0541 188.136 17.4654 189.81 18.3006C190.784 18.7584 191.841 19.012 192.917 19.0456C193.993 19.0792 195.064 18.8922 196.065 18.4961C196.141 18.4961 196.206 18.5721 196.13 18.6155C194.776 19.2137 193.282 19.4213 191.816 19.2149C190.35 19.0085 188.971 18.3963 187.834 17.4474C186.698 16.4986 185.849 15.2509 185.385 13.8452C184.92 12.4396 184.858 10.9321 185.205 9.49292Z" fill="#263238"/>
<path d="M222.301 16.8895C222.301 16.8895 225.299 10.0584 222.095 6.47446C220.281 4.45446 214.829 5.14951 214.829 5.14951C213.201 3.08219 210.818 1.74621 208.204 1.4353C203.545 0.707658 198.235 3.85714 198.235 3.85714C198.235 3.85714 193.695 1.68509 189.796 4.32413C184.366 8.00576 185.724 16.618 191.653 18.9638C195.824 20.6254 201.015 16.6505 201.015 16.6505C201.536 16.6505 207.162 19.5176 210.865 14.4133C210.865 14.4133 214.384 17.0958 217.197 14.8151C217.732 15.6432 218.509 16.2864 219.422 16.6575C220.335 17.0287 221.34 17.1096 222.301 16.8895Z" fill="#263238"/>
<path d="M220.533 28.2376C220.533 28.2376 223.378 21.8626 226.191 22.8074C229.004 23.7523 227.635 32.4188 224.855 34.113C224.516 34.3486 224.133 34.5138 223.73 34.5989C223.326 34.6839 222.909 34.687 222.504 34.608C222.099 34.529 221.714 34.3695 221.371 34.139C221.029 33.9084 220.736 33.6116 220.511 33.2659L220.533 28.2376Z" fill="#D3766A"/>
<path d="M225.734 25.2617V25.3377C223.801 26.5867 223.074 28.7479 222.693 30.9091C222.775 30.6762 222.907 30.4638 223.078 30.2867C223.25 30.1095 223.459 29.9718 223.689 29.883C223.919 29.7941 224.166 29.7564 224.412 29.7723C224.658 29.7882 224.898 29.8574 225.115 29.9751C225.18 29.9751 225.115 30.0945 225.115 30.0945C224.72 30.0488 224.32 30.1292 223.973 30.3242C223.626 30.5192 223.349 30.819 223.182 31.1806C222.887 31.768 222.661 32.3875 222.509 33.0268C222.509 33.2332 222.096 33.2006 222.118 33.0268C221.564 30.2249 222.922 26.0871 225.734 25.2617Z" fill="#263238"/>
<path d="M70.0013 40.8907L186.926 76.7051L165.844 145.531L48.9198 109.716L70.0013 40.8907Z" fill="#4C4989"/>
<path opacity="0.2" d="M70.0013 40.8907L186.926 76.7051L165.844 145.531L48.9198 109.716L70.0013 40.8907Z" fill="black"/>
<path opacity="0.2" d="M70.0075 40.8911L109.301 52.9268L88.2193 121.752L48.926 109.717L70.0075 40.8911Z" fill="black"/>
<path d="M71.8873 44.3975C73.2123 50.4937 74.501 56.5899 75.7536 62.6861L79.4569 81.0183L83.0408 99.4264C84.2137 105.552 85.3577 111.688 86.4727 117.835C85.1477 111.746 83.859 105.649 82.6064 99.5459L78.9031 81.2137L75.3192 62.8491C74.1463 56.6949 73.0023 50.5444 71.8873 44.3975Z" fill="#4C4989"/>
<path d="M52.5869 107.409C56.931 102.949 61.3149 98.5068 65.7386 94.0831L78.9882 80.877L92.3246 67.7686C96.7845 63.4245 101.266 59.0804 105.77 54.7363C101.425 59.2035 97.0415 63.6454 92.6178 68.0619L79.3682 81.2679L66.0318 94.3763C61.5647 98.7638 57.083 103.108 52.5869 107.409Z" fill="#4C4989"/>
<path d="M164.468 85.5751L163.824 85.3779L166.595 76.3334L167.238 76.5306L164.468 85.5751Z" fill="#263238"/>
<path d="M165.995 86.0341L165.352 85.8369L168.122 76.7924L168.766 76.9896L165.995 86.0341Z" fill="#263238"/>
<path d="M167.538 86.5253L166.895 86.3281L169.665 77.2836L170.309 77.4808L167.538 86.5253Z" fill="#263238"/>
<path d="M169.066 86.9695L168.422 86.7725L171.191 77.7275L171.835 77.9245L169.066 86.9695Z" fill="#263238"/>
<path d="M170.609 87.4472L169.965 87.25L172.735 78.2055L173.379 78.4027L170.609 87.4472Z" fill="#263238"/>
<path d="M172.144 87.9072L171.5 87.71L174.27 78.6655L174.914 78.8627L172.144 87.9072Z" fill="#263238"/>
<path d="M173.691 88.413L173.047 88.2158L175.817 79.1713L176.461 79.3685L173.691 88.413Z" fill="#263238"/>
<path d="M175.226 88.8711L174.582 88.6738L177.354 79.6298L177.998 79.8271L175.226 88.8711Z" fill="#263238"/>
<path d="M176.777 89.3574L176.133 89.1602L178.903 80.1157L179.547 80.3129L176.777 89.3574Z" fill="#263238"/>
<path d="M160.082 75.0881L162.754 75.1533L156.965 73.3613L159.224 74.8166L158.203 78.1398C156.368 77.8249 155.13 79.3562 154.196 82.3971L159.985 84.2216C160.919 81.1916 160.756 79.2259 159.061 78.4548L160.082 75.0881Z" fill="#263238"/>
<path d="M154.262 77.4021L152.752 76.9351L154.11 72.5041L150.243 71.3203L148.886 75.7513L147.365 75.2843L149.407 80.9534L154.262 77.4021Z" fill="#263238"/>
<path opacity="0.1" d="M186.918 76.7067L185.191 82.354L104.369 69.0176L109.3 52.9336L186.918 76.7067Z" fill="black"/>
<path d="M33.7693 117.52L73.0726 129.554L88.2227 121.756L48.9194 109.712L33.7693 117.52Z" fill="#4C4989"/>
<path opacity="0.2" d="M33.7693 117.52L73.0726 129.554L88.2227 121.756L48.9194 109.712L33.7693 117.52Z" fill="black"/>
<path d="M174.027 160.484L134.724 148.44L126.546 133.496L165.85 145.529L174.027 160.484Z" fill="#4C4989"/>
<path opacity="0.1" d="M174.027 160.484L134.724 148.44L126.546 133.496L165.85 145.529L174.027 160.484Z" fill="black"/>
<path d="M238.713 66.0862C232.968 85.298 216.992 118.215 211.063 122.234C205.839 125.829 180.763 122.56 169.794 120.181C165.689 119.302 174.138 87.9588 178.482 88.9905C183.738 90.2395 199.388 93.3346 200.496 92.4767C201.603 91.6187 216.786 71.8422 227.646 60.2434C237.508 49.6872 240.885 58.8207 238.713 66.0862Z" fill="#D3766A"/>
<path d="M180.742 91.5423C180.742 91.5423 172.434 82.1808 166.548 78.6078C160.334 75.0514 153.35 73.0575 146.196 72.7975C138.474 72.4934 119.588 77.0765 119.968 82.7455C120.305 87.8824 139.365 82.2134 139.365 82.2134C139.365 82.2134 118.98 84.7872 120.522 90.9016C122.064 97.0159 143.817 89.1639 143.817 89.1639C143.817 89.1639 122.933 92.27 125.474 98.3409C127.429 102.913 147.532 96.9182 147.532 96.9182C147.532 96.9182 129.59 99.7201 131.404 104.52C133.402 109.809 152.31 105.443 152.31 105.443C158.946 116.825 166.776 119.562 172.564 120.789C174.009 121.039 180.742 91.5423 180.742 91.5423Z" fill="#D3766A"/>
<path d="M146.357 80.8672C143.957 81.0844 141.513 81.2907 139.135 81.7143C136.756 82.1378 134.4 82.6591 132.065 83.3107C129.006 84.0969 126.047 85.2301 123.246 86.6883C128.405 84.4619 136.898 82.7895 139.276 82.3442C141.654 81.8989 144.011 81.3668 146.379 80.9432C146.444 80.9649 146.422 80.8672 146.357 80.8672Z" fill="#263238"/>
<path d="M148.061 89.4356C145.009 89.8375 141.947 90.1307 138.906 90.6737C135.865 91.2167 133.052 91.9987 130.065 92.748C129.837 92.8023 129.946 92.9109 130.174 92.8566C133.193 92.2267 136.017 91.8792 139.036 91.2927C142.055 90.7063 145.053 89.9895 148.083 89.5008C148.126 89.5008 148.115 89.4248 148.061 89.4356Z" fill="#263238"/>
<path d="M150.851 96.5171C146.142 97.0284 141.498 98.0256 136.993 99.4928C136.765 99.558 136.917 99.6774 137.156 99.6231C141.739 98.5371 145.334 97.6683 150.862 96.68C150.949 96.6692 150.949 96.5063 150.851 96.5171Z" fill="#263238"/>
<path d="M172.28 125.741L179.578 88.251L199.92 91.444C207.696 82.1041 223.226 63.4245 229.568 57.7771C237.008 51.1415 242.101 55.8766 239.549 65.7051C233.706 88.175 215.982 121.364 211.182 124.622C204.296 129.292 172.28 125.741 172.28 125.741Z" fill="#4C4989"/>
<path opacity="0.1" d="M186.049 93.4533C185.046 93.6714 184.024 93.7915 182.998 93.8117C180.826 94.1049 179.87 97.3087 181.847 98.5251C182.884 99.1644 184.058 99.5515 185.273 99.6552C186.487 99.7589 187.709 99.5764 188.841 99.1224C191.013 98.2753 192.848 96.1684 192.381 93.6922C192.3 93.2306 192.101 92.7978 191.803 92.4359C191.506 92.074 191.119 91.7953 190.682 91.6269C190.245 91.4585 189.771 91.4062 189.308 91.4751C188.844 91.5439 188.406 91.7315 188.037 92.0197C187.435 92.5765 186.768 93.0579 186.049 93.4533ZM188.221 89.6088C187.54 89.9373 186.79 90.0969 186.034 90.0742C185.277 90.0515 184.538 89.8472 183.877 89.4785C183.634 89.3159 183.439 89.0908 183.313 88.8268L188.221 89.6088ZM198.789 91.2595C197.924 91.8912 196.856 92.1812 195.791 92.0741C195.424 92.0236 195.086 91.8461 194.836 91.5723C194.586 91.2985 194.44 90.9457 194.423 90.5754L198.789 91.2595ZM175.765 107.995C176.195 108.175 176.543 108.508 176.742 108.929C177.654 110.765 176.384 112.741 174.57 113.925L175.765 107.995ZM208.476 115.206C208.823 116.412 208.867 117.487 209.768 118.464C210.739 119.247 211.607 120.148 212.353 121.147C212.479 121.393 212.539 121.667 212.527 121.944C212.515 122.22 212.432 122.488 212.285 122.722C212.139 122.956 211.934 123.149 211.69 123.28C211.447 123.411 211.174 123.477 210.898 123.471C209.005 123.238 207.27 122.303 206.035 120.851C204.8 119.398 204.155 117.535 204.23 115.63C204.291 115.142 204.516 114.689 204.868 114.345C205.22 114.001 205.678 113.788 206.168 113.738C206.657 113.689 207.149 113.808 207.562 114.074C207.976 114.341 208.286 114.74 208.443 115.206H208.476ZM212.223 104.683C212.831 106.16 212.722 107.832 213.233 109.374C213.681 110.788 214.214 112.174 214.829 113.523C215.285 114.5 214.373 116.043 213.189 115.521C211.264 114.782 209.689 113.343 208.78 111.492C207.955 109.787 207.042 106.92 207.835 105.106C208.628 103.293 211.267 102.543 212.19 104.683H212.223ZM228.339 66.2701C227.733 66.3985 227.1 66.287 226.573 65.959C226.047 65.631 225.668 65.112 225.516 64.5107C224.907 62.1758 226.993 59.7756 228.643 58.3204C230.294 56.8651 232.618 55.5401 234.931 56.2895C235.239 56.3893 235.517 56.5661 235.737 56.8032C235.958 57.0402 236.114 57.3297 236.191 57.644C236.268 57.9584 236.264 58.2873 236.179 58.5995C236.093 58.9118 235.929 59.197 235.703 59.4281C234.693 60.6879 233.292 61.6002 232.216 62.8382C231.141 64.0763 230.196 65.9551 228.307 66.2701H228.339ZM219.955 75.5339C219.043 74.2198 219.749 72.2758 220.4 71.0269C220.747 70.3379 221.287 69.7645 221.953 69.3761C222.402 69.0891 222.946 68.9908 223.466 69.1027C223.987 69.2145 224.443 69.5275 224.734 69.9734C225.03 70.591 225.077 71.2989 224.864 71.95C224.773 72.2906 224.65 72.6216 224.495 72.9383V73.036V73.1229C224.301 74.16 223.861 75.1356 223.213 75.9683C222.989 76.1941 222.715 76.365 222.414 76.4676C222.113 76.5702 221.792 76.6017 221.476 76.5596C221.161 76.5176 220.859 76.4031 220.596 76.2251C220.332 76.0472 220.112 75.8106 219.955 75.5339ZM222.551 86.3941C222.154 86.4809 221.742 86.4809 221.345 86.3941C220.743 86.2088 220.235 85.801 219.923 85.2538C219.631 84.6713 219.485 84.0264 219.499 83.375C219.519 82.7579 219.686 82.1545 219.988 81.6156L220.346 81.1704L220.824 80.8228C221.123 80.6686 221.453 80.5838 221.789 80.5747C222.125 80.5656 222.459 80.6324 222.766 80.7702C223.073 80.9079 223.345 81.1131 223.561 81.3704C223.778 81.6277 223.934 81.9306 224.017 82.2564C224.198 82.8889 224.325 83.5356 224.397 84.1895L224.299 84.7868C224.223 85.0865 224.074 85.3627 223.865 85.5905C223.531 85.9536 223.089 86.2008 222.605 86.2964L222.551 86.3941ZM213.439 75.371L215.611 72.9274C215.958 72.8861 216.308 72.9739 216.595 73.1742C216.881 73.3745 217.084 73.6733 217.164 74.0135C217.251 74.6476 217.251 75.2907 217.164 75.9249C217.164 76.1964 217.164 76.4679 217.164 76.7502C217.17 77.1594 217.126 77.5678 217.034 77.9666C216.915 78.3799 216.661 78.7415 216.313 78.9935C215.964 79.2455 215.541 79.3734 215.111 79.3567C214.687 79.3348 214.281 79.1774 213.953 78.9076C213.624 78.6379 213.391 78.27 213.287 77.858C213.124 77.0296 213.176 76.1733 213.439 75.371Z" fill="#030402"/>
<path d="M179.297 122.298C180.176 120.072 182.24 110.406 182.729 107.984C183.217 105.563 184.836 95.8317 185.324 93.3447C185.324 93.2144 185.172 93.1275 185.14 93.2687C184.618 95.7123 182.218 105.345 181.708 107.756C181.197 110.167 179.253 119.833 179.166 122.266C179.162 122.283 179.165 122.301 179.174 122.316C179.183 122.332 179.198 122.343 179.215 122.347C179.233 122.351 179.251 122.349 179.266 122.34C179.281 122.33 179.292 122.315 179.297 122.298Z" fill="#263238"/>
<path d="M186.006 126.795C189.34 126.99 192.674 127.066 196.008 127.044C199.355 127.059 202.699 126.867 206.022 126.469C207.724 126.3 209.389 125.86 210.952 125.166C212.358 124.173 213.578 122.942 214.558 121.527C216.526 118.81 218.308 115.962 219.89 113.002C223.148 107.148 225.95 101.056 228.687 94.9958C231.424 88.9358 233.911 82.702 236.191 76.4248C233.422 82.4957 230.685 88.5774 227.84 94.6049C224.994 100.632 222.117 106.638 219.01 112.513C217.46 115.444 215.749 118.287 213.884 121.028C213.014 122.393 211.911 123.595 210.626 124.579C209.145 125.262 207.566 125.706 205.946 125.893C199.331 126.695 192.666 126.996 186.006 126.795Z" fill="#263238"/>
<path d="M234.075 81.7249C234.522 81.2744 234.925 80.7836 235.281 80.2588C235.649 79.739 235.932 79.1633 236.117 78.5537C235.954 78.8235 235.776 79.0845 235.585 79.3357L235.053 80.1067C234.695 80.6264 234.369 81.1667 234.075 81.7249Z" fill="#263238"/>
<path d="M216.926 71.6572C214.178 74.4157 211.713 77.4457 209.161 80.3454C206.609 83.2451 204.165 86.3077 201.559 89.1966L200.592 90.2826C200.418 90.4455 200.255 90.6301 200.092 90.7821C199.929 90.9342 199.929 90.9233 199.853 90.9885C199.853 90.9885 199.777 90.9885 199.734 90.9885C198.909 90.9885 197.866 90.8039 196.932 90.6844L191.154 89.8265C187.31 89.2617 183.454 88.6753 179.599 88.154L179.447 89.1097L179.675 88.1648H179.621C183.433 88.9794 187.223 89.707 191.089 90.4129C193.011 90.7604 194.934 91.0645 196.867 91.3578C197.855 91.5293 198.852 91.6453 199.853 91.7053C199.933 91.7155 200.013 91.7155 200.092 91.7053C200.199 91.6733 200.298 91.6218 200.386 91.5532C200.495 91.4682 200.6 91.3775 200.701 91.2817L201.233 90.7604C201.58 90.4021 201.906 90.0437 202.232 89.6744C204.784 86.7096 207.26 83.7121 209.693 80.6712L213.331 76.0991C214.526 74.6764 215.612 73.1125 216.926 71.6572Z" fill="#263238"/>
<path d="M215.504 71.9824C215.095 72.4849 214.731 73.0228 214.418 73.5898C214.112 74.1498 213.896 74.7545 213.777 75.3817C213.907 75.0885 214.07 74.8278 214.222 74.5454L214.668 73.7092C214.977 73.1491 215.256 72.5726 215.504 71.9824Z" fill="#263238"/>
</svg>
